<?xml version="1.0" encoding="UTF-8"?>
<svg version="1.1" xmlns="http://www.w3.org/2000/svg" width="584" height="584">
<path d="M0 0 C1.12535156 0.00580078 1.12535156 0.00580078 2.2734375 0.01171875 C3.02367187 0.00785156 3.77390625 0.00398438 4.546875 0 C10.14682697 0.01010822 10.14682697 0.01010822 11.2734375 1.13671875 C14.12872357 1.53710175 16.97080237 1.88854145 19.8359375 2.19921875 C21.04540039 2.33553711 21.04540039 2.33553711 22.27929688 2.47460938 C24.27691127 2.69919324 26.2751231 2.91845111 28.2734375 3.13671875 C28.2734375 3.79671875 28.2734375 4.45671875 28.2734375 5.13671875 C28.96050781 5.18570313 29.64757812 5.2346875 30.35546875 5.28515625 C31.25652344 5.35992187 32.15757812 5.4346875 33.0859375 5.51171875 C33.97925781 5.58132812 34.87257812 5.6509375 35.79296875 5.72265625 C38.2734375 6.13671875 38.2734375 6.13671875 41.2734375 8.13671875 C42.57210202 8.61372291 43.88708436 9.04737878 45.2109375 9.44921875 C56.34065294 13.07535185 66.26233671 18.16856251 76.2734375 24.13671875 C76.2734375 24.79671875 76.2734375 25.45671875 76.2734375 26.13671875 C76.8715625 26.23984375 77.4696875 26.34296875 78.0859375 26.44921875 C80.58212767 27.23373566 81.53075615 28.23561183 83.2734375 30.13671875 C83.9334375 30.46671875 84.5934375 30.79671875 85.2734375 31.13671875 C85.2734375 31.79671875 85.2734375 32.45671875 85.2734375 33.13671875 C85.86511719 33.41257813 86.45679688 33.6884375 87.06640625 33.97265625 C93.84866004 37.54984498 101.83351547 44.81695266 104.2734375 52.13671875 C104.9334375 52.13671875 105.5934375 52.13671875 106.2734375 52.13671875 C108.2734375 55.13671875 108.2734375 55.13671875 108.2734375 58.13671875 C109.2634375 58.46671875 110.2534375 58.79671875 111.2734375 59.13671875 C111.6034375 60.78671875 111.9334375 62.43671875 112.2734375 64.13671875 C112.9334375 64.13671875 113.5934375 64.13671875 114.2734375 64.13671875 C114.6034375 65.78671875 114.9334375 67.43671875 115.2734375 69.13671875 C115.9334375 69.13671875 116.5934375 69.13671875 117.2734375 69.13671875 C119.64457233 74.09955909 121.70518097 78.59621762 122.2734375 84.13671875 C122.9334375 84.13671875 123.5934375 84.13671875 124.2734375 84.13671875 C125.5934375 88.42671875 126.9134375 92.71671875 128.2734375 97.13671875 C128.9334375 96.80671875 129.5934375 96.47671875 130.2734375 96.13671875 C131.18829323 93.3319368 131.18829323 93.3319368 131.8984375 90.07421875 C132.28902344 88.41712891 132.28902344 88.41712891 132.6875 86.7265625 C132.88085938 85.87191406 133.07421875 85.01726562 133.2734375 84.13671875 C133.9334375 84.13671875 134.5934375 84.13671875 135.2734375 84.13671875 C135.3559375 83.33234375 135.4384375 82.52796875 135.5234375 81.69921875 C136.47540425 77.1773767 138.28923929 73.28969174 140.2734375 69.13671875 C140.9334375 69.13671875 141.5934375 69.13671875 142.2734375 69.13671875 C142.41458984 68.32460937 142.41458984 68.32460937 142.55859375 67.49609375 C143.48483003 64.43900787 144.9979731 62.0790287 146.7109375 59.38671875 C147.32839844 58.401875 147.94585937 57.41703125 148.58203125 56.40234375 C149.14019531 55.6546875 149.69835937 54.90703125 150.2734375 54.13671875 C150.9334375 54.13671875 151.5934375 54.13671875 152.2734375 54.13671875 C152.5003125 53.41484375 152.7271875 52.69296875 152.9609375 51.94921875 C154.54270558 48.55971572 156.5724512 46.71207778 159.2734375 44.13671875 C160.0778125 43.14671875 160.8821875 42.15671875 161.7109375 41.13671875 C164.398818 37.98993183 166.97968525 35.62533156 170.2734375 33.13671875 C170.9334375 33.13671875 171.5934375 33.13671875 172.2734375 33.13671875 C172.2734375 32.47671875 172.2734375 31.81671875 172.2734375 31.13671875 C172.8715625 30.86859375 173.4696875 30.60046875 174.0859375 30.32421875 C176.31671658 29.24732085 176.31671658 29.24732085 177.8984375 27.51171875 C178.5790625 26.83109375 178.5790625 26.83109375 179.2734375 26.13671875 C179.9334375 26.13671875 180.5934375 26.13671875 181.2734375 26.13671875 C181.2734375 25.47671875 181.2734375 24.81671875 181.2734375 24.13671875 C182.2015625 23.68296875 183.1296875 23.22921875 184.0859375 22.76171875 C187.31265139 21.19455545 187.31265139 21.19455545 190.2734375 19.13671875 C191.2634375 19.13671875 192.2534375 19.13671875 193.2734375 19.13671875 C193.2734375 18.47671875 193.2734375 17.81671875 193.2734375 17.13671875 C200.41102738 13.71358891 207.62996691 10.84162334 215.109375 8.25 C217.08289518 7.55561327 219.0436266 6.82219708 220.98046875 6.03125 C223.71390008 4.96488582 226.37503706 4.54114672 229.2734375 4.13671875 C229.2734375 3.80671875 229.2734375 3.47671875 229.2734375 3.13671875 C230.56121094 3.00394531 231.84898437 2.87117188 233.17578125 2.734375 C234.85419112 2.55621976 236.53257523 2.37782183 238.2109375 2.19921875 C239.06107422 2.11220703 239.91121094 2.02519531 240.78710938 1.93554688 C242.00043945 1.8050293 242.00043945 1.8050293 243.23828125 1.671875 C243.987146 1.59332275 244.73601074 1.51477051 245.50756836 1.43383789 C247.29483763 1.30864495 247.29483763 1.30864495 248.2734375 0.13671875 C250.70357909 0.0092845 253.09273985 -0.04849246 255.5234375 -0.05078125 C256.19246094 -0.06302734 256.86148437 -0.07527344 257.55078125 -0.08789062 C261.65707667 -0.09999169 264.53124115 0.56391159 268.2734375 2.13671875 C271.58954443 2.4939004 274.88374976 2.63892972 278.21484375 2.79296875 C281.15511048 3.12342018 282.73150098 3.73838267 285.2734375 5.13671875 C287.59839027 5.52421088 289.93195018 5.86654714 292.2734375 6.13671875 C292.2734375 6.79671875 292.2734375 7.45671875 292.2734375 8.13671875 C293.5315625 8.28109375 294.7896875 8.42546875 296.0859375 8.57421875 C298.70010873 8.87420561 300.74783642 9.29485172 303.2734375 10.13671875 C303.2734375 10.79671875 303.2734375 11.45671875 303.2734375 12.13671875 C304.2634375 12.21921875 305.2534375 12.30171875 306.2734375 12.38671875 C310.74800698 12.99979882 314.36914435 14.9563992 318.2734375 17.13671875 C318.2734375 17.79671875 318.2734375 18.45671875 318.2734375 19.13671875 C319.37171875 19.29720703 319.37171875 19.29720703 320.4921875 19.4609375 C323.471359 20.18480923 325.26877804 21.20742212 327.7734375 22.94921875 C328.505625 23.45066406 329.2378125 23.95210937 329.9921875 24.46875 C332.48056687 26.28816437 334.87477641 28.20076235 337.2734375 30.13671875 C338.0984375 30.77351563 338.9234375 31.4103125 339.7734375 32.06640625 C344.56110328 35.79180868 348.55564049 39.35669403 352.2734375 44.13671875 C353.1603125 44.98234375 354.0471875 45.82796875 354.9609375 46.69921875 C357.27450675 49.1378458 358.27555325 50.9616325 359.2734375 54.13671875 C359.9334375 54.13671875 360.5934375 54.13671875 361.2734375 54.13671875 C367.24281439 61.95229468 376.2734375 74.99086901 376.2734375 85.13671875 C376.9334375 85.13671875 377.5934375 85.13671875 378.2734375 85.13671875 C379.41108101 89.40288191 380.2734375 92.70158186 380.2734375 97.13671875 C380.9334375 97.13671875 381.5934375 97.13671875 382.2734375 97.13671875 C382.9334375 100.43671875 383.5934375 103.73671875 384.2734375 107.13671875 C384.6034375 107.13671875 384.9334375 107.13671875 385.2734375 107.13671875 C385.32242188 108.18472656 385.37140625 109.23273438 385.421875 110.3125 C385.49691893 111.69143229 385.57246607 113.07033725 385.6484375 114.44921875 C385.679375 115.13951172 385.7103125 115.82980469 385.7421875 116.54101562 C385.95468669 120.20662664 386.19277611 122.01572667 388.2734375 125.13671875 C388.53222656 127.14208984 388.53222656 127.14208984 388.5390625 129.41015625 C388.54164063 130.23515625 388.54421875 131.06015625 388.546875 131.91015625 C388.53914062 132.76867187 388.53140625 133.6271875 388.5234375 134.51171875 C388.53117188 135.3625 388.53890625 136.21328125 388.546875 137.08984375 C388.532671 141.64932703 388.15036088 144.93155071 386.2734375 149.13671875 C385.99467232 151.23271735 385.78755006 153.33934486 385.6484375 155.44921875 C385.57367187 156.51785156 385.49890625 157.58648437 385.421875 158.6875 C385.37289062 159.49574219 385.32390625 160.30398438 385.2734375 161.13671875 C384.6134375 161.13671875 383.9534375 161.13671875 383.2734375 161.13671875 C382.9434375 164.10671875 382.6134375 167.07671875 382.2734375 170.13671875 C381.6134375 170.13671875 380.9534375 170.13671875 380.2734375 170.13671875 C380.24765625 170.719375 380.221875 171.30203125 380.1953125 171.90234375 C379.69742592 179.09906788 377.76539224 185.39105522 375.2734375 192.13671875 C374.6134375 192.13671875 373.9534375 192.13671875 373.2734375 192.13671875 C373.1290625 193.22984375 372.9846875 194.32296875 372.8359375 195.44921875 C372.2734375 199.13671875 372.2734375 199.13671875 371.2734375 202.13671875 C370.6134375 202.13671875 369.9534375 202.13671875 369.2734375 202.13671875 C369.16257812 203.01972656 369.05171875 203.90273438 368.9375 204.8125 C368.2707444 208.15020009 367.31520961 210.3783996 365.6484375 213.32421875 C365.11605469 214.26652344 364.58367187 215.20882812 364.03515625 216.1796875 C361.6841875 220.1257703 359.21725409 223.98805249 356.69140625 227.82421875 C355.14090161 230.15712209 355.14090161 230.15712209 354.2734375 233.13671875 C353.6134375 233.13671875 352.9534375 233.13671875 352.2734375 233.13671875 C351.933125 234.43609375 351.933125 234.43609375 351.5859375 235.76171875 C350.02898197 239.76531869 348.10851136 241.93817388 345.2734375 245.13671875 C344.9434375 245.79671875 344.6134375 246.45671875 344.2734375 247.13671875 C343.6134375 247.13671875 342.9534375 247.13671875 342.2734375 247.13671875 C341.6134375 248.78671875 340.9534375 250.43671875 340.2734375 252.13671875 C339.6134375 252.13671875 338.9534375 252.13671875 338.2734375 252.13671875 C337.933125 253.21953125 337.933125 253.21953125 337.5859375 254.32421875 C336.02516824 257.66872431 333.9000504 259.5774549 331.2734375 262.13671875 C330.9434375 263.12671875 330.6134375 264.11671875 330.2734375 265.13671875 C328.88655922 266.24622137 327.49911311 267.35501914 326.109375 268.4609375 C323.9281902 270.45184873 322.21893078 272.62303289 320.3984375 274.94921875 C316.20721834 280.18645158 311.67793622 284.99419975 306.9609375 289.76171875 C306.26693848 290.47303955 305.57293945 291.18436035 304.85791016 291.91723633 C304.19452637 292.58005615 303.53114258 293.24287598 302.84765625 293.92578125 C301.95953247 294.81837646 301.95953247 294.81837646 301.0534668 295.72900391 C299.11779366 297.25980781 297.68541965 297.7303576 295.2734375 298.13671875 C295.2734375 298.79671875 295.2734375 299.45671875 295.2734375 300.13671875 C293.81076695 301.36669171 292.34369655 302.59208976 290.84765625 303.78125 C289.08605619 305.20701609 289.08605619 305.20701609 287.3359375 307.63671875 C285.11331311 310.33080891 282.84487454 312.00912802 279.95703125 313.92578125 C278.19825781 315.19079231 276.78066322 316.58468362 275.2734375 318.13671875 C270.58772321 322.13671875 270.58772321 322.13671875 268.2734375 322.13671875 C267.9434375 323.12671875 267.6134375 324.11671875 267.2734375 325.13671875 C265.30022697 326.50938695 263.29800598 327.84099492 261.2734375 329.13671875 C260.7784375 329.63171875 260.2834375 330.12671875 259.7734375 330.63671875 C257.54873305 332.8614232 254.88586235 334.39510218 252.2734375 336.13671875 C251.4690625 336.97203125 251.4690625 336.97203125 250.6484375 337.82421875 C248.95189113 339.44364937 247.55394706 339.74352745 245.2734375 340.13671875 C245.2734375 340.79671875 245.2734375 341.45671875 245.2734375 342.13671875 C243.9534375 342.46671875 242.6334375 342.79671875 241.2734375 343.13671875 C241.2734375 343.79671875 241.2734375 344.45671875 241.2734375 345.13671875 C239.59375 346.42578125 239.59375 346.42578125 237.3984375 347.76171875 C236.67914063 348.20773437 235.95984375 348.65375 235.21875 349.11328125 C233.2734375 350.13671875 233.2734375 350.13671875 231.2734375 350.13671875 C231.2734375 350.79671875 231.2734375 351.45671875 231.2734375 352.13671875 C229.2934375 352.79671875 227.3134375 353.45671875 225.2734375 354.13671875 C225.2734375 354.79671875 225.2734375 355.45671875 225.2734375 356.13671875 C223.9534375 356.46671875 222.6334375 356.79671875 221.2734375 357.13671875 C221.2734375 357.79671875 221.2734375 358.45671875 221.2734375 359.13671875 C219.2934375 359.79671875 217.3134375 360.45671875 215.2734375 361.13671875 C215.2734375 361.79671875 215.2734375 362.45671875 215.2734375 363.13671875 C214.2834375 363.46671875 213.2934375 363.79671875 212.2734375 364.13671875 C211.9434375 364.79671875 211.6134375 365.45671875 211.2734375 366.13671875 C208.9593753 366.86747523 206.62514881 367.53810133 204.2734375 368.13671875 C204.2734375 368.79671875 204.2734375 369.45671875 204.2734375 370.13671875 C202.9534375 370.46671875 201.6334375 370.79671875 200.2734375 371.13671875 C200.2734375 371.79671875 200.2734375 372.45671875 200.2734375 373.13671875 C197.9634375 373.79671875 195.6534375 374.45671875 193.2734375 375.13671875 C193.2734375 375.79671875 193.2734375 376.45671875 193.2734375 377.13671875 C191.6234375 377.46671875 189.9734375 377.79671875 188.2734375 378.13671875 C188.2734375 378.79671875 188.2734375 379.45671875 188.2734375 380.13671875 C186.81806182 380.97520679 185.35903377 381.80735809 183.8984375 382.63671875 C183.08632813 383.10078125 182.27421875 383.56484375 181.4375 384.04296875 C179.2734375 385.13671875 179.2734375 385.13671875 177.2734375 385.13671875 C177.2734375 385.79671875 177.2734375 386.45671875 177.2734375 387.13671875 C174.9634375 387.79671875 172.6534375 388.45671875 170.2734375 389.13671875 C170.2734375 389.79671875 170.2734375 390.45671875 170.2734375 391.13671875 C168.2934375 391.46671875 166.3134375 391.79671875 164.2734375 392.13671875 C164.2734375 392.79671875 164.2734375 393.45671875 164.2734375 394.13671875 C161.9634375 394.79671875 159.6534375 395.45671875 157.2734375 396.13671875 C157.2734375 396.79671875 157.2734375 397.45671875 157.2734375 398.13671875 C154.42290221 399.56198639 151.57198022 400.98638012 148.71875 402.40625 C146.47589968 403.53276099 144.24097285 404.67523448 142.015625 405.8359375 C140.98695313 406.36832031 139.95828125 406.90070313 138.8984375 407.44921875 C137.96257812 407.94035156 137.02671875 408.43148438 136.0625 408.9375 C131.53744831 410.88314547 128.51122147 411.58682201 123.8359375 409.88671875 C122.6603125 409.30921875 121.4846875 408.73171875 120.2734375 408.13671875 C118.96426661 407.56651346 117.65184374 407.00370344 116.3359375 406.44921875 C115.3253125 406.01609375 114.3146875 405.58296875 113.2734375 405.13671875 C113.2734375 404.47671875 113.2734375 403.81671875 113.2734375 403.13671875 C112.2421875 402.86859375 111.2109375 402.60046875 110.1484375 402.32421875 C106.6249333 401.32672978 103.50462923 399.87052895 100.2734375 398.13671875 C100.2734375 397.47671875 100.2734375 396.81671875 100.2734375 396.13671875 C99.4896875 395.99234375 98.7059375 395.84796875 97.8984375 395.69921875 C95.2734375 395.13671875 95.2734375 395.13671875 93.2734375 394.13671875 C93.2734375 393.47671875 93.2734375 392.81671875 93.2734375 392.13671875 C91.6234375 391.80671875 89.9734375 391.47671875 88.2734375 391.13671875 C88.2734375 390.47671875 88.2734375 389.81671875 88.2734375 389.13671875 C85.6334375 388.47671875 82.9934375 387.81671875 80.2734375 387.13671875 C80.2734375 386.47671875 80.2734375 385.81671875 80.2734375 385.13671875 C79.5721875 384.86859375 78.8709375 384.60046875 78.1484375 384.32421875 C75.1084551 383.06857385 72.2006601 381.63436752 69.2734375 380.13671875 C69.2734375 379.47671875 69.2734375 378.81671875 69.2734375 378.13671875 C67.6234375 377.80671875 65.9734375 377.47671875 64.2734375 377.13671875 C64.2734375 376.47671875 64.2734375 375.81671875 64.2734375 375.13671875 C61.9634375 374.47671875 59.6534375 373.81671875 57.2734375 373.13671875 C57.2734375 372.47671875 57.2734375 371.81671875 57.2734375 371.13671875 C55.9534375 370.80671875 54.6334375 370.47671875 53.2734375 370.13671875 C53.2734375 369.47671875 53.2734375 368.81671875 53.2734375 368.13671875 C52.1390625 367.84796875 51.0046875 367.55921875 49.8359375 367.26171875 C48.6603125 366.89046875 47.4846875 366.51921875 46.2734375 366.13671875 C45.9434375 365.47671875 45.6134375 364.81671875 45.2734375 364.13671875 C44.2834375 363.80671875 43.2934375 363.47671875 42.2734375 363.13671875 C42.2734375 362.47671875 42.2734375 361.81671875 42.2734375 361.13671875 C40.2934375 360.47671875 38.3134375 359.81671875 36.2734375 359.13671875 C36.2734375 358.47671875 36.2734375 357.81671875 36.2734375 357.13671875 C34.9534375 356.80671875 33.6334375 356.47671875 32.2734375 356.13671875 C32.2734375 355.47671875 32.2734375 354.81671875 32.2734375 354.13671875 C30.2934375 353.47671875 28.3134375 352.81671875 26.2734375 352.13671875 C26.2734375 351.47671875 26.2734375 350.81671875 26.2734375 350.13671875 C25.5515625 349.86859375 24.8296875 349.60046875 24.0859375 349.32421875 C21.27577367 348.13770513 18.78927193 346.86186236 16.2734375 345.13671875 C16.2734375 344.47671875 16.2734375 343.81671875 16.2734375 343.13671875 C15.5515625 342.86859375 14.8296875 342.60046875 14.0859375 342.32421875 C8.75342792 340.07271471 5.34787571 337.21115696 1.2734375 333.13671875 C-0.89276794 331.8415188 -0.89276794 331.8415188 -2.7265625 331.13671875 C-2.7265625 330.47671875 -2.7265625 329.81671875 -2.7265625 329.13671875 C-3.2834375 328.86859375 -3.8403125 328.60046875 -4.4140625 328.32421875 C-9.32256958 325.80363403 -12.86200542 323.1029747 -16.7265625 319.13671875 C-17.7165625 318.47671875 -18.7065625 317.81671875 -19.7265625 317.13671875 C-19.7265625 316.47671875 -19.7265625 315.81671875 -19.7265625 315.13671875 C-20.3040625 315.05421875 -20.8815625 314.97171875 -21.4765625 314.88671875 C-24.3804961 313.91874088 -25.76396854 312.44977591 -27.7265625 310.13671875 C-27.7265625 309.47671875 -27.7265625 308.81671875 -27.7265625 308.13671875 C-28.7165625 307.80671875 -29.7065625 307.47671875 -30.7265625 307.13671875 C-30.7265625 306.47671875 -30.7265625 305.81671875 -30.7265625 305.13671875 C-31.3865625 304.95109375 -32.0465625 304.76546875 -32.7265625 304.57421875 C-39.38793387 301.38231164 -44.16710662 295.80523147 -48.7265625 290.13671875 C-50.3725276 288.44960452 -52.03893399 286.78215655 -53.7265625 285.13671875 C-55.39322917 283.47005208 -57.05989583 281.80338542 -58.7265625 280.13671875 C-59.4690625 279.43546875 -60.2115625 278.73421875 -60.9765625 278.01171875 C-62.7265625 276.13671875 -62.7265625 276.13671875 -63.7265625 273.13671875 C-65.10041995 272.03763279 -66.47480394 270.93919972 -67.8515625 269.84375 C-71.97965486 266.08546592 -75.29241336 261.51969698 -78.7265625 257.13671875 C-79.35691406 256.3375 -79.98726562 255.53828125 -80.63671875 254.71484375 C-84.7265625 249.41641733 -84.7265625 249.41641733 -84.7265625 247.13671875 C-85.3865625 247.13671875 -86.0465625 247.13671875 -86.7265625 247.13671875 C-88.671875 244.8359375 -88.671875 244.8359375 -90.8515625 241.82421875 C-91.57601562 240.83808594 -92.30046875 239.85195313 -93.046875 238.8359375 C-94.7265625 236.13671875 -94.7265625 236.13671875 -94.7265625 233.13671875 C-95.3865625 233.13671875 -96.0465625 233.13671875 -96.7265625 233.13671875 C-100.2704787 228.26383397 -103.18853465 222.98122458 -104.7265625 217.13671875 C-105.3865625 217.13671875 -106.0465625 217.13671875 -106.7265625 217.13671875 C-107.98321228 214.23071614 -108.7265625 212.34067291 -108.7265625 209.13671875 C-109.3865625 209.13671875 -110.0465625 209.13671875 -110.7265625 209.13671875 C-111.0565625 206.82671875 -111.3865625 204.51671875 -111.7265625 202.13671875 C-112.3865625 202.13671875 -113.0465625 202.13671875 -113.7265625 202.13671875 C-123.10017289 178.66427633 -123.10017289 178.66427633 -122.7265625 171.13671875 C-123.3865625 171.13671875 -124.0465625 171.13671875 -124.7265625 171.13671875 C-127.36809702 164.47545779 -128.18185427 158.52332373 -128.515625 151.37109375 C-128.59408276 146.37875025 -128.59408276 146.37875025 -130.7265625 142.13671875 C-130.85273588 139.86853213 -130.90236496 137.5958819 -130.9140625 135.32421875 C-130.92824219 134.08027344 -130.94242188 132.83632812 -130.95703125 131.5546875 C-130.73588394 128.27496042 -130.20074388 126.93998492 -128.7265625 124.13671875 C-128.52254395 121.51809307 -128.52254395 121.51809307 -128.6640625 118.76171875 C-128.76558325 112.89694283 -128.35787035 108.39933445 -125.7265625 103.13671875 C-125.34365788 101.14561474 -125.00051635 99.14571362 -124.7265625 97.13671875 C-124.0665625 97.13671875 -123.4065625 97.13671875 -122.7265625 97.13671875 C-122.5821875 95.91984375 -122.4378125 94.70296875 -122.2890625 93.44921875 C-121.89875297 90.31001498 -121.40304394 87.22920535 -120.7265625 84.13671875 C-120.0665625 84.13671875 -119.4065625 84.13671875 -118.7265625 84.13671875 C-118.6440625 83.33234375 -118.5615625 82.52796875 -118.4765625 81.69921875 C-117.52459575 77.1773767 -115.71076071 73.28969174 -113.7265625 69.13671875 C-113.0665625 69.13671875 -112.4065625 69.13671875 -111.7265625 69.13671875 C-111.4584375 68.42128906 -111.1903125 67.70585937 -110.9140625 66.96875 C-109.70924943 64.09542936 -108.31419138 61.50334249 -106.7265625 58.82421875 C-106.2109375 57.94121094 -105.6953125 57.05820313 -105.1640625 56.1484375 C-104.6896875 55.48457031 -104.2153125 54.82070312 -103.7265625 54.13671875 C-103.0665625 54.13671875 -102.4065625 54.13671875 -101.7265625 54.13671875 C-101.38625 53.05390625 -101.38625 53.05390625 -101.0390625 51.94921875 C-99.45729442 48.55971572 -97.4275488 46.71207778 -94.7265625 44.13671875 C-94.0046875 43.20859375 -93.2828125 42.28046875 -92.5390625 41.32421875 C-88.92597938 36.88528806 -84.23121919 33.61375063 -79.7265625 30.13671875 C-78.8396875 29.39679688 -77.9528125 28.656875 -77.0390625 27.89453125 C-74.7265625 26.13671875 -74.7265625 26.13671875 -72.7265625 26.13671875 C-72.7265625 25.47671875 -72.7265625 24.81671875 -72.7265625 24.13671875 C-71.29361752 23.29557704 -69.85501845 22.46406188 -68.4140625 21.63671875 C-67.61355469 21.17265625 -66.81304687 20.70859375 -65.98828125 20.23046875 C-63.7265625 19.13671875 -63.7265625 19.13671875 -60.7265625 19.13671875 C-60.7265625 18.47671875 -60.7265625 17.81671875 -60.7265625 17.13671875 C-57.82055989 15.88006897 -55.93051666 15.13671875 -52.7265625 15.13671875 C-52.7265625 14.47671875 -52.7265625 13.81671875 -52.7265625 13.13671875 C-49.2615625 12.64171875 -49.2615625 12.64171875 -45.7265625 12.13671875 C-45.7265625 11.47671875 -45.7265625 10.81671875 -45.7265625 10.13671875 C-45.01628906 9.93175781 -44.30601563 9.72679688 -43.57421875 9.515625 C-42.65511719 9.24621094 -41.73601562 8.97679688 -40.7890625 8.69921875 C-39.87253906 8.43238281 -38.95601563 8.16554688 -38.01171875 7.890625 C-35.7863132 7.34645824 -35.7863132 7.34645824 -34.7265625 6.13671875 C-32.88056562 5.74217652 -31.02430428 5.39495009 -29.1640625 5.07421875 C-28.15214844 4.89761719 -27.14023438 4.72101563 -26.09765625 4.5390625 C-25.31519531 4.40628906 -24.53273438 4.27351563 -23.7265625 4.13671875 C-23.7265625 3.80671875 -23.7265625 3.47671875 -23.7265625 3.13671875 C-22.51097656 3.00394531 -21.29539062 2.87117188 -20.04296875 2.734375 C-18.45830766 2.55621784 -16.8736736 2.37782 -15.2890625 2.19921875 C-14.48662109 2.11220703 -13.68417969 2.02519531 -12.85742188 1.93554688 C-8.16335035 1.40077923 -4.71126031 0.00850408 0 0 Z M383.2734375 156.13671875 C384.2734375 159.13671875 384.2734375 159.13671875 384.2734375 159.13671875 Z " fill="#E64D3C" transform="translate(163.7265625,111.86328125)"/>
<path d="M0 0 C1.00353516 -0.01836914 1.00353516 -0.01836914 2.02734375 -0.03710938 C6.13363917 -0.04921044 9.00780365 0.61469284 12.75 2.1875 C16.06610693 2.54468165 19.36031226 2.68971097 22.69140625 2.84375 C25.63167298 3.17420143 27.20806348 3.78916392 29.75 5.1875 C32.07495277 5.57499213 34.40851268 5.91732839 36.75 6.1875 C36.75 6.8475 36.75 7.5075 36.75 8.1875 C38.008125 8.331875 39.26625 8.47625 40.5625 8.625 C43.17667123 8.92498686 45.22439892 9.34563297 47.75 10.1875 C47.75 10.8475 47.75 11.5075 47.75 12.1875 C48.74 12.27 49.73 12.3525 50.75 12.4375 C55.22456948 13.05058007 58.84570685 15.00718045 62.75 17.1875 C62.75 17.8475 62.75 18.5075 62.75 19.1875 C63.4821875 19.29449219 64.214375 19.40148437 64.96875 19.51171875 C67.9479215 20.23559048 69.74534054 21.25820337 72.25 23 C72.9821875 23.50144531 73.714375 24.00289062 74.46875 24.51953125 C76.95712937 26.33894562 79.35133891 28.2515436 81.75 30.1875 C82.575 30.82429688 83.4 31.46109375 84.25 32.1171875 C89.03766578 35.84258993 93.03220299 39.40747528 96.75 44.1875 C97.636875 45.033125 98.52375 45.87875 99.4375 46.75 C101.75106925 49.18862705 102.75211575 51.01241375 103.75 54.1875 C104.41 54.1875 105.07 54.1875 105.75 54.1875 C111.71937689 62.00307593 120.75 75.04165026 120.75 85.1875 C121.41 85.1875 122.07 85.1875 122.75 85.1875 C123.88764351 89.45366316 124.75 92.75236311 124.75 97.1875 C125.41 97.1875 126.07 97.1875 126.75 97.1875 C129.85913338 114.56206889 128.85764623 132.6063873 128.75 150.1875 C128.09 150.1875 127.43 150.1875 126.75 150.1875 C126.811875 151.239375 126.87375 152.29125 126.9375 153.375 C126.94836413 159.50237059 125.21629706 165.27875837 123.75 171.1875 C123.41172449 172.79063177 123.07772986 174.39467918 122.75 176 C121.98243022 179.46664713 120.91591129 182.69219139 119.61328125 185.9921875 C118.54595157 188.70639239 117.55496005 191.44508388 116.5625 194.1875 C116.21832031 195.13625 115.87414062 196.085 115.51953125 197.0625 C115.26558594 197.76375 115.01164063 198.465 114.75 199.1875 C114.09 199.1875 113.43 199.1875 112.75 199.1875 C112.68941406 199.97898437 112.62882813 200.77046875 112.56640625 201.5859375 C111.44990934 206.51134493 109.16345155 210.44104577 106.6875 214.8125 C105.93932007 216.14982178 105.93932007 216.14982178 105.17602539 217.51416016 C101.33644525 224.3075956 97.26008533 230.81569341 92.75 237.1875 C91.97334648 238.31338026 91.19733553 239.43970398 90.421875 240.56640625 C82.09405044 252.55834121 72.58899623 263.41778791 62.75 274.1875 C61.85395069 275.17688778 60.95812723 276.16648013 60.0625 277.15625 C52.72228549 285.24572737 45.270771 293.133982 36.96875 300.25 C34.76625854 302.1733024 32.61729131 304.14797227 30.47436523 306.13720703 C24.42819515 311.74444149 18.20607807 317.05238099 11.75 322.1875 C11.24307617 322.59403809 10.73615234 323.00057617 10.21386719 323.41943359 C-7.05985311 337.26482225 -25.04306151 350.13754922 -43.49609375 362.359375 C-45.16114207 363.46468367 -46.82148351 364.5771935 -48.47265625 365.703125 C-53.20722577 368.92440221 -58.04840295 371.95793727 -62.9375 374.9375 C-63.88266479 375.52132446 -63.88266479 375.52132446 -64.84692383 376.11694336 C-68.55132926 378.35169539 -72.06071284 379.9776905 -76.25 381.1875 C-76.25 381.8475 -76.25 382.5075 -76.25 383.1875 C-76.94222656 383.51621094 -77.63445312 383.84492188 -78.34765625 384.18359375 C-85.23921241 387.5340341 -91.78036617 391.20413654 -98.26000977 395.29077148 C-102.9338952 398.1875 -102.9338952 398.1875 -106.25 398.1875 C-106.25 398.8475 -106.25 399.5075 -106.25 400.1875 C-109.37202006 401.69376117 -112.49808399 403.19143243 -115.625 404.6875 C-116.95917969 405.33138672 -116.95917969 405.33138672 -118.3203125 405.98828125 C-119.59648437 406.59736328 -119.59648437 406.59736328 -120.8984375 407.21875 C-121.68395996 407.59580078 -122.46948242 407.97285156 -123.27880859 408.36132812 C-125.25 409.1875 -125.25 409.1875 -127.25 409.1875 C-127.25 381.4675 -127.25 353.7475 -127.25 325.1875 C-114.71 325.1875 -102.17 325.1875 -89.25 325.1875 C-89.25 324.5275 -89.25 323.8675 -89.25 323.1875 C-88.0434375 322.93355469 -86.836875 322.67960937 -85.59375 322.41796875 C-83.97909815 322.07063085 -82.36451863 321.7229566 -80.75 321.375 C-79.95851563 321.20935547 -79.16703125 321.04371094 -78.3515625 320.87304688 C-66.27855331 318.25063094 -55.60549131 313.34356935 -46.25 305.1875 C-45.59 305.1875 -44.93 305.1875 -44.25 305.1875 C-44.023125 304.671875 -43.79625 304.15625 -43.5625 303.625 C-42.25 301.1875 -42.25 301.1875 -39.875 298 C-30.38628211 284.92852138 -29.88332929 269.77084593 -31.25 254.1875 C-32.30441898 249.68472367 -33.88512925 246.13733732 -36.25 242.1875 C-36.6728125 241.33671875 -37.095625 240.4859375 -37.53125 239.609375 C-41.39888541 232.27885672 -46.96700751 227.44195992 -53.25 222.1875 C-52.03226774 219.65920388 -50.76662769 217.46976535 -49.1875 215.125 C-47.14527457 212.3039266 -47.14527457 212.3039266 -46.25 209.1875 C-45.59 209.1875 -44.93 209.1875 -44.25 209.1875 C-43.59 205.5575 -42.93 201.9275 -42.25 198.1875 C-41.59 198.1875 -40.93 198.1875 -40.25 198.1875 C-40.19119143 194.22923069 -40.15613487 190.27107608 -40.125 186.3125 C-40.09986328 184.64960938 -40.09986328 184.64960938 -40.07421875 182.953125 C-39.98595346 167.94802552 -43.5302136 155.84007113 -54.125 144.75 C-59.10543353 140.1739185 -64.78227608 135.34340797 -71.25 133.1875 C-71.25 132.5275 -71.25 131.8675 -71.25 131.1875 C-71.90226562 131.06632813 -72.55453125 130.94515625 -73.2265625 130.8203125 C-74.53753906 130.56894531 -74.53753906 130.56894531 -75.875 130.3125 C-77.16277344 130.06886719 -77.16277344 130.06886719 -78.4765625 129.8203125 C-81.25 129.1875 -81.25 129.1875 -84.2265625 128.18359375 C-97.77574045 123.71971729 -113.16091008 124.59004543 -127.25 124.1875 C-127.25 119.8975 -127.25 115.6075 -127.25 111.1875 C-126.59 111.1875 -125.93 111.1875 -125.25 111.1875 C-125.37375 109.393125 -125.37375 109.393125 -125.5 107.5625 C-125.5431674 100.81759372 -123.27734656 94.55010996 -121.25 88.1875 C-120.59 88.1875 -119.93 88.1875 -119.25 88.1875 C-118.59 84.8875 -117.93 81.5875 -117.25 78.1875 C-116.59 78.1875 -115.93 78.1875 -115.25 78.1875 C-115.12753906 77.44757813 -115.00507813 76.70765625 -114.87890625 75.9453125 C-110.06372298 54.83028523 -84.68347114 33.22869839 -67.25 22.1875 C-66.51523437 21.85621094 -65.78046875 21.52492187 -65.0234375 21.18359375 C-62.89768012 20.25100661 -62.89768012 20.25100661 -62.25 17.1875 C-55.57186636 13.16765257 -47.74315215 10.84031909 -40.4140625 8.30078125 C-38.44054232 7.60639452 -36.4798109 6.87297833 -34.54296875 6.08203125 C-31.80953742 5.01566707 -29.14840044 4.59192797 -26.25 4.1875 C-26.25 3.8575 -26.25 3.5275 -26.25 3.1875 C-24.96222656 3.05472656 -23.67445313 2.92195313 -22.34765625 2.78515625 C-20.66924638 2.60700101 -18.99086227 2.42860308 -17.3125 2.25 C-16.46236328 2.16298828 -15.61222656 2.07597656 -14.73632812 1.98632812 C-13.52299805 1.85581055 -13.52299805 1.85581055 -12.28515625 1.72265625 C-11.5362915 1.644104 -10.78742676 1.56555176 -10.01586914 1.48461914 C-1.19903766 0.00112904 -1.19903766 0.00112904 0 0 Z " fill="#BE1E2D" transform="translate(419.25,111.8125)"/>
<path d="M0 0 C1.28891396 -0.00503792 1.28891396 -0.00503792 2.60386658 -0.01017761 C5.44092258 -0.01966472 8.27791936 -0.02163 11.11499023 -0.02270508 C13.09691898 -0.02592063 15.0788475 -0.02928493 17.06077576 -0.03279114 C21.21760609 -0.03877782 25.37441566 -0.04063165 29.53125 -0.04003906 C34.8312022 -0.03993779 40.13101937 -0.05355563 45.43093967 -0.07081127 C49.52758889 -0.08199067 53.62420616 -0.08395641 57.72086906 -0.08342934 C59.6730896 -0.08460184 61.62531117 -0.08898215 63.57751656 -0.0967617 C76.34119261 -0.14283927 88.36691354 0.27759939 100.61108398 4.27026367 C101.70936523 4.6234668 102.80764648 4.97666992 103.93920898 5.34057617 C104.73842773 5.60612305 105.53764648 5.87166992 106.36108398 6.14526367 C106.36108398 6.80526367 106.36108398 7.46526367 106.36108398 8.14526367 C107.43229492 8.26514648 107.43229492 8.26514648 108.52514648 8.38745117 C114.0888764 9.8741779 118.11419319 14.41240577 122.36108398 18.14526367 C123.02881836 18.7047168 123.69655273 19.26416992 124.38452148 19.84057617 C132.26958583 26.94070199 137.6292663 37.56205402 138.36108398 48.14526367 C138.68622521 56.55135393 138.73751506 64.83161998 137.36108398 73.14526367 C136.70108398 73.14526367 136.04108398 73.14526367 135.36108398 73.14526367 C135.21670898 74.40338867 135.07233398 75.66151367 134.92358398 76.95776367 C134.62359712 79.5719349 134.20295101 81.6196626 133.36108398 84.14526367 C132.70108398 84.14526367 132.04108398 84.14526367 131.36108398 84.14526367 C131.29920898 84.84651367 131.23733398 85.54776367 131.17358398 86.27026367 C130.06907197 90.17853697 128.07877406 92.14883615 125.36108398 95.14526367 C126.75864957 98.43239498 128.31753149 100.1401498 131.11108398 102.33276367 C138.09995766 108.2707741 141.98708642 115.74094247 145.36108398 124.14526367 C145.87336548 125.28125 145.87336548 125.28125 146.39599609 126.44018555 C148.07445744 131.14480274 147.68859345 135.94814257 147.67358398 140.89526367 C147.68969727 141.94198242 147.70581055 142.98870117 147.72241211 144.06713867 C147.72653471 150.66330548 146.93436637 156.06581533 144.36108398 162.14526367 C143.77907227 163.52391602 143.77907227 163.52391602 143.18530273 164.93041992 C134.5442115 182.24229686 121.25648463 189.9472574 103.43530273 195.99682617 C95.07085003 198.51468026 86.71671695 199.44514218 78.01196289 199.45166016 C77.04303101 199.45998367 76.07409912 199.46830719 75.07580566 199.47688293 C71.91304375 199.50073616 68.75048842 199.50971966 65.58764648 199.51635742 C63.37332095 199.5253347 61.158996 199.53445674 58.94467163 199.54371643 C54.32353241 199.56013607 49.70246511 199.56789507 45.08129883 199.57080078 C39.15956103 199.57621165 33.23849657 199.61403315 27.31694984 199.65954494 C22.7530569 199.68925567 18.18932841 199.69652286 13.62534714 199.69752693 C11.44123589 199.70173245 9.2571243 199.71417996 7.07310867 199.73504448 C4.02617288 199.76186519 0.98083096 199.75716356 -2.06616211 199.74462891 C-3.41588608 199.76688034 -3.41588608 199.76688034 -4.7928772 199.7895813 C-9.31361202 199.7365548 -11.05251316 199.62333376 -14.67471313 196.67030334 C-15.64699356 195.42040871 -15.64699356 195.42040871 -16.63891602 194.14526367 C-16.96891602 193.81526367 -17.29891602 193.48526367 -17.63891602 193.14526367 C-17.94952053 188.7359648 -17.91742459 184.3141489 -17.95141602 179.89526367 C-17.98041992 178.65389648 -18.00942383 177.4125293 -18.03930664 176.13354492 C-18.04768555 174.93600586 -18.05606445 173.7384668 -18.06469727 172.50463867 C-18.07927979 171.40603516 -18.0938623 170.30743164 -18.10888672 169.17553711 C-17.5320819 165.45641946 -16.23132044 163.82000973 -13.63891602 161.14526367 C-10.19240207 159.4220067 -6.21609885 160.00121157 -2.42260742 160.00341797 C-1.46623383 159.99994354 -0.50986023 159.99646912 0.47549438 159.9928894 C2.55877472 159.98552309 4.64206296 159.98018239 6.72535324 159.97659874 C10.03055933 159.96943684 13.33561665 159.95376898 16.64077759 159.93525696 C26.04085152 159.88279785 35.44084753 159.83487937 44.84106445 159.81933594 C50.58829261 159.8092092 56.33515162 159.77975788 62.08223343 159.73801613 C64.26608095 159.72575954 66.44998077 159.72057503 68.63386154 159.72281456 C80.02778639 159.73161736 89.75569264 159.64982513 100.36108398 155.14526367 C101.02108398 155.14526367 101.68108398 155.14526367 102.36108398 155.14526367 C103.88407921 152.20805859 105.162087 149.22839877 106.36108398 146.14526367 C107.02108398 146.14526367 107.68108398 146.14526367 108.36108398 146.14526367 C108.33677408 138.85229103 107.94332631 133.38876913 103.02905273 127.76245117 C98.21312581 123.09314497 93.76939541 121.47112121 87.36108398 120.14526367 C87.36108398 119.48526367 87.36108398 118.82526367 87.36108398 118.14526367 C86.14221497 118.14748428 84.92334595 118.1497049 83.6675415 118.1519928 C72.1901953 118.17224984 60.71285272 118.18724821 49.23549271 118.19707584 C43.33464056 118.20229813 37.43380283 118.20938398 31.53295898 118.22070312 C25.84011442 118.23155515 20.14728373 118.23754544 14.45442963 118.24014091 C12.28068574 118.24199097 10.10694264 118.24560358 7.93320465 118.25099373 C4.89254606 118.25823482 1.85194509 118.25925331 -1.1887207 118.25878906 C-2.09071198 118.26238434 -2.99270325 118.26597961 -3.92202759 118.26968384 C-4.75211334 118.26830917 -5.5821991 118.26693451 -6.43743896 118.26551819 C-7.51593676 118.26690088 -7.51593676 118.26690088 -8.61622238 118.2683115 C-10.73024218 118.13970797 -12.6049973 117.72179653 -14.63891602 117.14526367 C-14.63891602 116.48526367 -14.63891602 115.82526367 -14.63891602 115.14526367 C-15.29891602 115.14526367 -15.95891602 115.14526367 -16.63891602 115.14526367 C-18.86072381 110.70164808 -17.86883539 104.64985542 -17.88891602 99.77026367 C-17.90954102 98.5250293 -17.93016602 97.27979492 -17.95141602 95.99682617 C-17.95915039 94.20245117 -17.95915039 94.20245117 -17.96704102 92.37182617 C-17.97638672 91.27435059 -17.98573242 90.176875 -17.99536133 89.04614258 C-17.59548773 85.79182885 -16.93529215 84.45038406 -14.63891602 82.14526367 C-10.72292568 80.83993356 -7.00121778 81.00912281 -2.91992188 81.01928711 C-1.58273605 81.01648491 -1.58273605 81.01648491 -0.21853638 81.0136261 C1.71958693 81.00962031 3.65771496 81.0075471 5.59584236 81.007164 C9.72413681 81.00374631 13.85227408 80.98237623 17.98051357 80.96193314 C25.66622867 80.92394583 33.35177797 80.89264281 41.03759766 80.89477539 C46.38403949 80.89556495 51.72990838 80.87209077 57.07620049 80.83289337 C59.10819354 80.82246568 61.140253 80.8208854 63.17225838 80.82854462 C78.11269471 81.25797144 78.11269471 81.25797144 91.36108398 75.14526367 C93.88148029 72.74948439 93.88148029 72.74948439 95.36108398 70.14526367 C95.71557617 69.57807617 96.07006836 69.01088867 96.43530273 68.42651367 C97.70635239 65.29447571 97.66279116 62.57872135 97.67358398 59.20776367 C97.6987207 57.39985352 97.6987207 57.39985352 97.72436523 55.55541992 C97.33692719 51.91850152 96.38429553 50.12936724 94.36108398 47.14526367 C94.36108398 46.48526367 94.36108398 45.82526367 94.36108398 45.14526367 C92.71108398 44.48526367 91.06108398 43.82526367 89.36108398 43.14526367 C89.36108398 42.48526367 89.36108398 41.82526367 89.36108398 41.14526367 C83.49403376 40.29655634 77.82634887 40.00934484 71.90332031 40.03515625 C70.01927184 40.03461412 68.13522338 40.03402717 66.25117493 40.03340149 C65.26397272 40.03482965 64.27677052 40.03625782 63.25965309 40.03772926 C58.00239667 40.04127062 52.74524447 40.01544342 47.48803711 39.99487305 C40.81191964 39.97050713 34.13611683 39.95490228 27.45996094 39.97021484 C22.04936617 39.9818594 16.63954455 39.96453607 11.22907066 39.92777061 C9.17060699 39.91915019 7.11206939 39.92124312 5.05362892 39.93427467 C2.17844113 39.95112991 -0.69429241 39.93101882 -3.56933594 39.90234375 C-4.41776062 39.91613571 -5.2661853 39.92992767 -6.14031982 39.94413757 C-11.74610687 39.83564287 -11.74610687 39.83564287 -14.2865839 37.87117767 C-17.50822994 34.19597435 -18.27094925 31.38842876 -18.26782227 26.57495117 C-18.26975586 25.34905273 -18.27168945 24.1231543 -18.27368164 22.86010742 C-18.24983398 21.59295898 -18.22598633 20.32581055 -18.20141602 19.02026367 C-18.21237305 17.74538086 -18.22333008 16.47049805 -18.23461914 15.15698242 C-18.16108049 5.85189123 -18.16108049 5.85189123 -15.91601562 2.8137207 C-11.22994008 -0.61982066 -5.59854034 -0.0031528 0 0 Z " fill="#FEFCFC" transform="translate(241.638916015625,236.854736328125)"/>
<path d="M0 0 C5.73375 -0.061875 11.4675 -0.12375 17.375 -0.1875 C19.16341309 -0.21481201 20.95182617 -0.24212402 22.79443359 -0.27026367 C43.25108664 -0.45595636 43.25108664 -0.45595636 50.4375 6.375 C51.36369141 7.22191406 51.36369141 7.22191406 52.30859375 8.0859375 C56.15533421 12.43906181 57.37992943 15.47547409 57.1875 21.3125 C57.14689453 22.91544922 57.14689453 22.91544922 57.10546875 24.55078125 C57.07066406 25.35902344 57.03585937 26.16726563 57 27 C56.34 27 55.68 27 55 27 C54.9071875 28.0828125 54.9071875 28.0828125 54.8125 29.1875 C53.7360253 32.91375858 52.16836679 34.89307708 49 37 C38.88358853 41.94397937 28.69787732 41.46876395 17.75 41.25 C11.8925 41.1675 6.035 41.085 0 41 C0 27.47 0 13.94 0 0 Z " fill="#BE1E2D" transform="translate(293,356)"/>
<path d="M0 0 C1.0355603 0.00012085 1.0355603 0.00012085 2.09204102 0.00024414 C4.16834741 -0.00191893 6.24410191 -0.02000107 8.3203125 -0.0390625 C15.05153839 -0.06680316 21.2003924 0.08917016 27.63867188 2.18554688 C27.63867188 2.84554688 27.63867188 3.50554687 27.63867188 4.18554688 C28.38117188 4.37117188 29.12367188 4.55679687 29.88867188 4.74804688 C32.86616125 6.30446177 34.36988849 7.7991855 35.90429688 10.79882812 C37.75279231 16.80643828 37.84853607 23.74867602 35.75585938 29.69335938 C33.16851706 34.19979004 29.42120903 38.05081286 24.63867188 40.18554688 C19.91984903 41.00074439 15.39540333 41.30446568 10.61132812 41.28320312 C9.32548828 41.27998047 8.03964844 41.27675781 6.71484375 41.2734375 C5.37695243 41.26508489 4.0390618 41.25661998 2.70117188 41.24804688 C1.33593914 41.24302347 -0.02929539 41.23846204 -1.39453125 41.234375 C-4.71684269 41.22263538 -8.03906221 41.20621366 -11.36132812 41.18554688 C-11.38597517 35.50724609 -11.40416275 29.82897618 -11.41625977 24.15063477 C-11.42130068 22.21736102 -11.42813331 20.28409111 -11.43676758 18.35083008 C-11.44884377 15.57827816 -11.45455869 12.80577646 -11.45898438 10.03320312 C-11.46414566 9.16341324 -11.46930695 8.29362335 -11.47462463 7.3974762 C-11.47481998 5.32648873 -11.4234098 3.25560363 -11.36132812 1.18554688 C-9.01780895 -1.1579723 -3.11506941 0.01374969 0 0 Z " fill="#BE1F2E" transform="translate(303.361328125,275.814453125)"/>
<path d="M0 0 C0.33 0 0.66 0 1 0 C1.04898437 1.04800781 1.09796875 2.09601563 1.1484375 3.17578125 C1.22348143 4.55471354 1.29902857 5.9336185 1.375 7.3125 C1.42140625 8.34793945 1.42140625 8.34793945 1.46875 9.40429688 C1.68124919 13.06990789 1.91933861 14.87900792 4 18 C4.25878906 20.00537109 4.25878906 20.00537109 4.265625 22.2734375 C4.26820313 23.0984375 4.27078125 23.9234375 4.2734375 24.7734375 C4.26570313 25.63195312 4.25796875 26.49046875 4.25 27.375 C4.25773437 28.22578125 4.26546875 29.0765625 4.2734375 29.953125 C4.2592335 34.51260828 3.87692338 37.79483196 2 42 C1.72123482 44.0959986 1.51411256 46.20262611 1.375 48.3125 C1.30023437 49.38113281 1.22546875 50.44976562 1.1484375 51.55078125 C1.09945313 52.35902344 1.05046875 53.16726563 1 54 C0.34 54 -0.32 54 -1 54 C-1.33 56.97 -1.66 59.94 -2 63 C-2.66 63 -3.32 63 -4 63 C-4.02578125 63.58265625 -4.0515625 64.1653125 -4.078125 64.765625 C-4.57601158 71.96234913 -6.50804526 78.25433647 -9 85 C-9.66 85 -10.32 85 -11 85 C-11.144375 86.093125 -11.28875 87.18625 -11.4375 88.3125 C-12 92 -12 92 -13 95 C-13.66 95 -14.32 95 -15 95 C-15.11085938 95.88300781 -15.22171875 96.76601563 -15.3359375 97.67578125 C-16.0026931 101.01348134 -16.95822789 103.24168085 -18.625 106.1875 C-19.15738281 107.12980469 -19.68976563 108.07210937 -20.23828125 109.04296875 C-22.58925 112.98905155 -25.05618341 116.85133374 -27.58203125 120.6875 C-29.13253589 123.02040334 -29.13253589 123.02040334 -30 126 C-30.66 126 -31.32 126 -32 126 C-32.226875 126.86625 -32.45375 127.7325 -32.6875 128.625 C-34.24445553 132.62859994 -36.16492614 134.80145513 -39 138 C-39.33 138.66 -39.66 139.32 -40 140 C-40.66 140 -41.32 140 -42 140 C-42.66 141.65 -43.32 143.3 -44 145 C-44.66 145 -45.32 145 -46 145 C-46.3403125 146.0828125 -46.3403125 146.0828125 -46.6875 147.1875 C-48.24826926 150.53200556 -50.3733871 152.44073615 -53 155 C-53.33 155.99 -53.66 156.98 -54 158 C-55.38687828 159.10950262 -56.77432439 160.21830039 -58.1640625 161.32421875 C-60.3452473 163.31512998 -62.05450672 165.48631414 -63.875 167.8125 C-68.06621916 173.04973283 -72.59550128 177.857481 -77.3125 182.625 C-78.00649902 183.3363208 -78.70049805 184.0476416 -79.41552734 184.78051758 C-80.07891113 185.4433374 -80.74229492 186.10615723 -81.42578125 186.7890625 C-82.01786377 187.38412598 -82.60994629 187.97918945 -83.2199707 188.59228516 C-85.15564384 190.12308906 -86.58801785 190.59363885 -89 191 C-89 191.66 -89 192.32 -89 193 C-90.46267055 194.22997296 -91.92974095 195.45537101 -93.42578125 196.64453125 C-95.18738131 198.07029734 -95.18738131 198.07029734 -96.9375 200.5 C-99.16012439 203.19409016 -101.42856296 204.87240927 -104.31640625 206.7890625 C-106.07517969 208.05407356 -107.49277428 209.44796487 -109 211 C-113.68571429 215 -113.68571429 215 -116 215 C-116.33 215.99 -116.66 216.98 -117 218 C-118.97321053 219.3726682 -120.97543152 220.70427617 -123 222 C-123.495 222.495 -123.99 222.99 -124.5 223.5 C-126.72470445 225.72470445 -129.38757515 227.25838343 -132 229 C-132.53625 229.556875 -133.0725 230.11375 -133.625 230.6875 C-135.32154637 232.30693062 -136.71949044 232.6068087 -139 233 C-139 233.66 -139 234.32 -139 235 C-140.32 235.33 -141.64 235.66 -143 236 C-143 236.66 -143 237.32 -143 238 C-144.6796875 239.2890625 -144.6796875 239.2890625 -146.875 240.625 C-147.59429687 241.07101562 -148.31359375 241.51703125 -149.0546875 241.9765625 C-151 243 -151 243 -153 243 C-153 243.66 -153 244.32 -153 245 C-155.97 245.99 -155.97 245.99 -159 247 C-159 247.66 -159 248.32 -159 249 C-160.32 249.33 -161.64 249.66 -163 250 C-163 250.66 -163 251.32 -163 252 C-164.98 252.66 -166.96 253.32 -169 254 C-169 254.66 -169 255.32 -169 256 C-169.99 256.33 -170.98 256.66 -172 257 C-172.33 257.66 -172.66 258.32 -173 259 C-175.3140622 259.73075648 -177.64828869 260.40138258 -180 261 C-180 261.66 -180 262.32 -180 263 C-181.32 263.33 -182.64 263.66 -184 264 C-184 264.66 -184 265.32 -184 266 C-186.31 266.66 -188.62 267.32 -191 268 C-191 268.66 -191 269.32 -191 270 C-192.65 270.33 -194.3 270.66 -196 271 C-196 271.66 -196 272.32 -196 273 C-197.45537568 273.83848804 -198.91440373 274.67063934 -200.375 275.5 C-201.59316406 276.19609375 -201.59316406 276.19609375 -202.8359375 276.90625 C-205 278 -205 278 -207 278 C-207 278.66 -207 279.32 -207 280 C-209.31 280.66 -211.62 281.32 -214 282 C-214 282.66 -214 283.32 -214 284 C-215.98 284.33 -217.96 284.66 -220 285 C-220 285.66 -220 286.32 -220 287 C-222.31 287.66 -224.62 288.32 -227 289 C-227 289.66 -227 290.32 -227 291 C-229.85053529 292.42526764 -232.70145728 293.84966137 -235.5546875 295.26953125 C-237.79753782 296.39604224 -240.03246465 297.53851573 -242.2578125 298.69921875 C-243.28648437 299.23160156 -244.31515625 299.76398438 -245.375 300.3125 C-246.31085938 300.80363281 -247.24671875 301.29476563 -248.2109375 301.80078125 C-252.73598919 303.74642672 -255.76221603 304.45010326 -260.4375 302.75 C-261.613125 302.1725 -262.78875 301.595 -264 301 C-265.30917089 300.42979471 -266.62159376 299.86698469 -267.9375 299.3125 C-268.948125 298.879375 -269.95875 298.44625 -271 298 C-271 297.34 -271 296.68 -271 296 C-272.03125 295.731875 -273.0625 295.46375 -274.125 295.1875 C-277.6485042 294.19001103 -280.76880827 292.7338102 -284 291 C-284 290.34 -284 289.68 -284 289 C-279.04001528 289.61632946 -275.06328034 291.79835629 -270.6875 294.0625 C-269.94693359 294.43955078 -269.20636719 294.81660156 -268.44335938 295.20507812 C-266.62612478 296.13128157 -264.81267596 297.06490629 -263 298 C-263 298.66 -263 299.32 -263 300 C-254.33985441 302.47432731 -248.93480981 298.88539076 -241.4765625 294.78515625 C-238 293 -238 293 -235 293 C-235 292.34 -235 291.68 -235 291 C-234.17822266 290.61521484 -234.17822266 290.61521484 -233.33984375 290.22265625 C-227.06826494 287.19394258 -221.14797919 283.75519822 -215.26733398 280.03540039 C-211.86542825 277.92958706 -209.00006712 276.45715053 -205 276 C-205 275.34 -205 274.68 -205 274 C-203.73929688 273.38898438 -203.73929688 273.38898438 -202.453125 272.765625 C-198.79197808 270.89363585 -195.27124953 268.86954312 -191.75 266.75 C-191.08814697 266.35232422 -190.42629395 265.95464844 -189.74438477 265.54492188 C-185.22179418 262.80175631 -180.86971564 259.88927901 -176.57421875 256.80078125 C-173.52503948 254.66774386 -170.39300056 252.67773725 -167.25 250.6875 C-140.23896131 233.48667729 -114.93799846 213.13047917 -91.48535156 191.37207031 C-89.95286266 189.95645762 -88.41145483 188.55118683 -86.8671875 187.1484375 C-79.1424234 180.12767512 -71.62888316 173.03578035 -64.828125 165.1015625 C-63.57194445 163.65749169 -62.28887849 162.23650907 -60.984375 160.8359375 C-54.02665146 153.35263053 -48.0056462 145.24948976 -42 137 C-41.32710937 136.07832031 -40.65421875 135.15664063 -39.9609375 134.20703125 C-35.29845779 127.68168865 -31.15300104 120.85668948 -27 114 C-26.17628906 112.69869141 -26.17628906 112.69869141 -25.3359375 111.37109375 C-21.46690571 105.19056348 -18.63730888 98.79165384 -16 92 C-15.34 92 -14.68 92 -14 92 C-13.896875 90.989375 -13.79375 89.97875 -13.6875 88.9375 C-12.97556031 84.86002722 -11.71313476 81.75571851 -10 78 C-7.51361374 72.36582423 -6.38479589 66.90829018 -5.46875 60.82421875 C-4.91048774 57.46068862 -3.94424299 54.2733757 -3 51 C-2.57884276 48.33582552 -2.28252936 45.68402895 -2 43 C-1.34 43 -0.68 43 0 43 C-0.03552979 41.83952148 -0.07105957 40.67904297 -0.10766602 39.48339844 C-0.23811074 35.17479525 -0.36124402 30.86600868 -0.48217773 26.55712891 C-0.53552266 24.69281298 -0.59084602 22.82855257 -0.64819336 20.96435547 C-0.73031405 18.28365039 -0.8053005 15.60282573 -0.87890625 12.921875 C-0.91945885 11.67322662 -0.91945885 11.67322662 -0.96083069 10.39935303 C-0.98092697 9.61884583 -1.00102325 8.83833862 -1.02172852 8.03417969 C-1.05170677 7.00825714 -1.05170677 7.00825714 -1.08229065 5.96160889 C-0.99401505 3.85733339 -0.57653538 2.0208995 0 0 Z M-1 49 C0 52 0 52 0 52 Z " fill="#F5DBDC" transform="translate(548,219)"/>
<path d="M0 0 C1.12535156 0.00580078 1.12535156 0.00580078 2.2734375 0.01171875 C3.02367187 0.00785156 3.77390625 0.00398438 4.546875 0 C10.14682697 0.01010822 10.14682697 0.01010822 11.2734375 1.13671875 C14.12872357 1.53710175 16.97080237 1.88854145 19.8359375 2.19921875 C21.04540039 2.33553711 21.04540039 2.33553711 22.27929688 2.47460938 C24.27691127 2.69919324 26.2751231 2.91845111 28.2734375 3.13671875 C28.2734375 3.79671875 28.2734375 4.45671875 28.2734375 5.13671875 C28.96050781 5.18570313 29.64757812 5.2346875 30.35546875 5.28515625 C31.25652344 5.35992187 32.15757812 5.4346875 33.0859375 5.51171875 C33.97925781 5.58132812 34.87257813 5.6509375 35.79296875 5.72265625 C38.2734375 6.13671875 38.2734375 6.13671875 41.2734375 8.13671875 C42.57210202 8.61372291 43.88708436 9.04737878 45.2109375 9.44921875 C56.34065294 13.07535185 66.26233671 18.16856251 76.2734375 24.13671875 C76.2734375 24.79671875 76.2734375 25.45671875 76.2734375 26.13671875 C76.8715625 26.23984375 77.4696875 26.34296875 78.0859375 26.44921875 C80.58212767 27.23373566 81.53075615 28.23561183 83.2734375 30.13671875 C83.9334375 30.46671875 84.5934375 30.79671875 85.2734375 31.13671875 C85.2734375 31.79671875 85.2734375 32.45671875 85.2734375 33.13671875 C85.86511719 33.41257813 86.45679688 33.6884375 87.06640625 33.97265625 C93.84866004 37.54984498 101.83351547 44.81695266 104.2734375 52.13671875 C104.9334375 52.13671875 105.5934375 52.13671875 106.2734375 52.13671875 C108.2734375 55.13671875 108.2734375 55.13671875 108.2734375 58.13671875 C109.2634375 58.46671875 110.2534375 58.79671875 111.2734375 59.13671875 C111.6034375 60.78671875 111.9334375 62.43671875 112.2734375 64.13671875 C112.9334375 64.13671875 113.5934375 64.13671875 114.2734375 64.13671875 C114.6034375 65.78671875 114.9334375 67.43671875 115.2734375 69.13671875 C115.9334375 69.13671875 116.5934375 69.13671875 117.2734375 69.13671875 C119.64457233 74.09955909 121.70518097 78.59621762 122.2734375 84.13671875 C122.9334375 84.13671875 123.5934375 84.13671875 124.2734375 84.13671875 C125.5934375 88.42671875 126.9134375 92.71671875 128.2734375 97.13671875 C128.9334375 96.80671875 129.5934375 96.47671875 130.2734375 96.13671875 C131.18829323 93.3319368 131.18829323 93.3319368 131.8984375 90.07421875 C132.15882813 88.96949219 132.41921875 87.86476563 132.6875 86.7265625 C132.88085938 85.87191406 133.07421875 85.01726562 133.2734375 84.13671875 C133.9334375 84.13671875 134.5934375 84.13671875 135.2734375 84.13671875 C135.3559375 83.33234375 135.4384375 82.52796875 135.5234375 81.69921875 C136.47540425 77.1773767 138.28923929 73.28969174 140.2734375 69.13671875 C140.9334375 69.13671875 141.5934375 69.13671875 142.2734375 69.13671875 C142.36753906 68.5953125 142.46164062 68.05390625 142.55859375 67.49609375 C143.48483003 64.43900787 144.9979731 62.0790287 146.7109375 59.38671875 C147.32839844 58.401875 147.94585937 57.41703125 148.58203125 56.40234375 C149.14019531 55.6546875 149.69835937 54.90703125 150.2734375 54.13671875 C150.9334375 54.13671875 151.5934375 54.13671875 152.2734375 54.13671875 C152.5003125 53.41484375 152.7271875 52.69296875 152.9609375 51.94921875 C154.54270558 48.55971572 156.5724512 46.71207778 159.2734375 44.13671875 C160.0778125 43.14671875 160.8821875 42.15671875 161.7109375 41.13671875 C164.398818 37.98993183 166.97968525 35.62533156 170.2734375 33.13671875 C170.9334375 33.13671875 171.5934375 33.13671875 172.2734375 33.13671875 C172.2734375 32.47671875 172.2734375 31.81671875 172.2734375 31.13671875 C172.8715625 30.86859375 173.4696875 30.60046875 174.0859375 30.32421875 C176.31671658 29.24732085 176.31671658 29.24732085 177.8984375 27.51171875 C178.3521875 27.05796875 178.8059375 26.60421875 179.2734375 26.13671875 C179.9334375 26.13671875 180.5934375 26.13671875 181.2734375 26.13671875 C181.2734375 25.47671875 181.2734375 24.81671875 181.2734375 24.13671875 C182.2015625 23.68296875 183.1296875 23.22921875 184.0859375 22.76171875 C187.31265139 21.19455545 187.31265139 21.19455545 190.2734375 19.13671875 C191.2634375 19.46671875 192.2534375 19.79671875 193.2734375 20.13671875 C192.72816406 20.48863281 192.18289063 20.84054688 191.62109375 21.203125 C184.47694505 25.88040526 177.74750887 30.93256692 171.3359375 36.57421875 C168.2734375 39.13671875 168.2734375 39.13671875 166.2734375 39.13671875 C166.00789062 39.73355469 165.74234375 40.33039063 165.46875 40.9453125 C164.23788975 43.20188962 163.0387718 44.48033337 161.1484375 46.19921875 C156.51640719 50.69642905 152.94362997 55.84776253 149.2734375 61.13671875 C148.70109375 61.93722656 148.12875 62.73773438 147.5390625 63.5625 C144.25727888 68.26584831 142.05841566 72.68261881 140.2734375 78.13671875 C139.6134375 78.13671875 138.9534375 78.13671875 138.2734375 78.13671875 C137.6134375 81.43671875 136.9534375 84.73671875 136.2734375 88.13671875 C135.6134375 88.13671875 134.9534375 88.13671875 134.2734375 88.13671875 C134.15226563 88.75417969 134.03109375 89.37164062 133.90625 90.0078125 C132.77269182 95.73664115 131.55973784 101.44024582 130.2734375 107.13671875 C129.2834375 107.13671875 128.2934375 107.13671875 127.2734375 107.13671875 C127.18707031 106.481875 127.10070312 105.82703125 127.01171875 105.15234375 C125.84439923 97.57012154 123.43172315 91.10016783 120.2734375 84.13671875 C119.90734375 83.29625 119.54125 82.45578125 119.1640625 81.58984375 C117.72092227 78.2817223 116.22484796 75.04133929 114.5859375 71.82421875 C113.47510298 69.54965282 112.74862517 67.60769465 112.2734375 65.13671875 C111.6134375 65.13671875 110.9534375 65.13671875 110.2734375 65.13671875 C109.2834375 62.16671875 109.2834375 62.16671875 108.2734375 59.13671875 C107.6134375 59.13671875 106.9534375 59.13671875 106.2734375 59.13671875 C104.91526875 57.1535003 103.58664515 55.14999058 102.2734375 53.13671875 C100.66448936 51.25045597 99.01767392 49.39588393 97.3359375 47.57421875 C96.50191406 46.66542969 95.66789063 45.75664062 94.80859375 44.8203125 C89.48516173 39.18518492 84.02033401 34.64504616 77.72265625 30.125 C76.91441406 29.46886719 76.10617188 28.81273437 75.2734375 28.13671875 C75.2734375 27.47671875 75.2734375 26.81671875 75.2734375 26.13671875 C74.0978125 25.82734375 74.0978125 25.82734375 72.8984375 25.51171875 C68.76137556 23.94248836 65.27931529 21.82397531 61.54296875 19.4765625 C59.23629249 18.00768309 59.23629249 18.00768309 56.2734375 17.13671875 C56.2734375 16.47671875 56.2734375 15.81671875 56.2734375 15.13671875 C53.9634375 14.80671875 51.6534375 14.47671875 49.2734375 14.13671875 C49.2734375 13.47671875 49.2734375 12.81671875 49.2734375 12.13671875 C48.56960937 12.03875 47.86578125 11.94078125 47.140625 11.83984375 C40.06280676 10.76800705 33.34680911 9.12458481 26.5 7.0390625 C19.12297434 4.975996 11.96189351 4.91809708 4.34521484 4.89648438 C2.30653537 4.88687476 0.26890826 4.85584545 -1.76953125 4.82421875 C-9.69248687 4.76223056 -16.9478983 5.53181518 -24.640625 7.48925781 C-27.76073088 8.14388762 -30.54872214 8.25004264 -33.7265625 8.13671875 C-33.7265625 8.79671875 -33.7265625 9.45671875 -33.7265625 10.13671875 C-37.6865625 10.79671875 -41.6465625 11.45671875 -45.7265625 12.13671875 C-45.7265625 11.47671875 -45.7265625 10.81671875 -45.7265625 10.13671875 C-45.01628906 9.93175781 -44.30601563 9.72679688 -43.57421875 9.515625 C-42.65511719 9.24621094 -41.73601562 8.97679688 -40.7890625 8.69921875 C-39.87253906 8.43238281 -38.95601563 8.16554688 -38.01171875 7.890625 C-35.7863132 7.34645824 -35.7863132 7.34645824 -34.7265625 6.13671875 C-32.88056562 5.74217652 -31.02430428 5.39495009 -29.1640625 5.07421875 C-28.15214844 4.89761719 -27.14023438 4.72101563 -26.09765625 4.5390625 C-25.31519531 4.40628906 -24.53273437 4.27351563 -23.7265625 4.13671875 C-23.7265625 3.80671875 -23.7265625 3.47671875 -23.7265625 3.13671875 C-22.51097656 3.00394531 -21.29539063 2.87117188 -20.04296875 2.734375 C-18.45830766 2.55621784 -16.8736736 2.37782 -15.2890625 2.19921875 C-14.48662109 2.11220703 -13.68417969 2.02519531 -12.85742188 1.93554688 C-8.16335035 1.40077923 -4.71126031 0.00850408 0 0 Z " fill="#FCEDEB" transform="translate(163.7265625,111.86328125)"/>
<path d="M0 0 C1.00353516 -0.01836914 1.00353516 -0.01836914 2.02734375 -0.03710938 C6.13363917 -0.04921044 9.00780365 0.61469284 12.75 2.1875 C16.06610693 2.54468165 19.36031226 2.68971097 22.69140625 2.84375 C25.63167298 3.17420143 27.20806348 3.78916392 29.75 5.1875 C32.07495277 5.57499213 34.40851268 5.91732839 36.75 6.1875 C36.75 6.8475 36.75 7.5075 36.75 8.1875 C38.008125 8.331875 39.26625 8.47625 40.5625 8.625 C43.17667123 8.92498686 45.22439892 9.34563297 47.75 10.1875 C47.75 10.8475 47.75 11.5075 47.75 12.1875 C49.235 12.31125 49.235 12.31125 50.75 12.4375 C55.22456948 13.05058007 58.84570685 15.00718045 62.75 17.1875 C62.75 17.8475 62.75 18.5075 62.75 19.1875 C63.4821875 19.29449219 64.214375 19.40148437 64.96875 19.51171875 C67.9479215 20.23559048 69.74534054 21.25820337 72.25 23 C72.9821875 23.50144531 73.714375 24.00289062 74.46875 24.51953125 C76.95712937 26.33894562 79.35133891 28.2515436 81.75 30.1875 C82.575 30.82429688 83.4 31.46109375 84.25 32.1171875 C89.03766578 35.84258993 93.03220299 39.40747528 96.75 44.1875 C97.636875 45.033125 98.52375 45.87875 99.4375 46.75 C101.75106925 49.18862705 102.75211575 51.01241375 103.75 54.1875 C104.41 54.1875 105.07 54.1875 105.75 54.1875 C111.71937689 62.00307593 120.75 75.04165026 120.75 85.1875 C121.41 85.1875 122.07 85.1875 122.75 85.1875 C123.88764351 89.45366316 124.75 92.75236311 124.75 97.1875 C125.41 97.1875 126.07 97.1875 126.75 97.1875 C127.70261487 101.95057437 127.83333357 106.3541528 127.75 111.1875 C126.3012538 108.48160248 125.33811697 105.97693268 124.63671875 102.9921875 C124.44352051 102.19901123 124.25032227 101.40583496 124.05126953 100.58862305 C123.74745361 99.33819214 123.74745361 99.33819214 123.4375 98.0625 C121.61330474 90.87695039 119.40395449 84.65846968 115.75 78.1875 C114.47628332 75.72011277 113.23861473 73.23514899 112 70.75 C111.40703125 69.57566406 110.8140625 68.40132813 110.203125 67.19140625 C108.75 64.1875 108.75 64.1875 107.75 61.1875 C107.09 61.1875 106.43 61.1875 105.75 61.1875 C104.6640625 59.67578125 104.6640625 59.67578125 103.375 57.5 C96.11726007 46.28670352 85.55187088 35.24155623 73.93359375 28.5703125 C73.21300781 28.11398438 72.49242187 27.65765625 71.75 27.1875 C71.75 26.5275 71.75 25.8675 71.75 25.1875 C71.03070313 24.91035156 70.31140625 24.63320312 69.5703125 24.34765625 C66.84255817 23.22557448 64.24927542 21.96923894 61.625 20.625 C58.98739445 19.27412907 56.5667673 18.12642243 53.75 17.1875 C53.75 16.5275 53.75 15.8675 53.75 15.1875 C53.13253906 15.07792969 52.51507813 14.96835938 51.87890625 14.85546875 C46.84643167 13.91331598 42.07403553 12.73200349 37.2421875 11.046875 C34.1983866 9.99728848 31.13524291 9.0240386 28.0625 8.0625 C26.47888672 7.56363281 26.47888672 7.56363281 24.86328125 7.0546875 C17.53415006 5.01319801 10.3142518 4.96861865 2.7668457 4.94726562 C0.71718495 4.93763942 -1.33143656 4.90660175 -3.38085938 4.875 C-11.08198608 4.81480632 -18.09298448 5.50536418 -25.54541016 7.52172852 C-28.92136888 8.35276656 -31.79892534 8.42827265 -35.25 8.1875 C-35.25 8.8475 -35.25 9.5075 -35.25 10.1875 C-41.4955985 12.526631 -47.72522376 14.7017663 -54.15625 16.4765625 C-56.51238473 17.17628941 -56.51238473 17.17628941 -59.25 19.1875 C-60.24 19.1875 -61.23 19.1875 -62.25 19.1875 C-62.25 18.5275 -62.25 17.8675 -62.25 17.1875 C-55.11241012 13.76437016 -47.89347059 10.89240459 -40.4140625 8.30078125 C-38.44054232 7.60639452 -36.4798109 6.87297833 -34.54296875 6.08203125 C-31.80953742 5.01566707 -29.14840044 4.59192797 -26.25 4.1875 C-26.25 3.8575 -26.25 3.5275 -26.25 3.1875 C-24.96222656 3.05472656 -23.67445313 2.92195313 -22.34765625 2.78515625 C-20.66924638 2.60700101 -18.99086227 2.42860308 -17.3125 2.25 C-16.46236328 2.16298828 -15.61222656 2.07597656 -14.73632812 1.98632812 C-13.92744141 1.89931641 -13.11855469 1.81230469 -12.28515625 1.72265625 C-11.5362915 1.644104 -10.78742676 1.56555176 -10.01586914 1.48461914 C-1.19903766 0.00112904 -1.19903766 0.00112904 0 0 Z " fill="#F8E7E9" transform="translate(419.25,111.8125)"/>
<path d="M0 0 C0.66 0 1.32 0 2 0 C2.226875 1.2375 2.45375 2.475 2.6875 3.75 C3.5633079 7.77363918 4.91845802 11.35225626 6.5625 15.125 C8.47457147 19.52276438 9.67450023 23.22600332 10 28 C10.66 28 11.32 28 12 28 C12.30292969 28.75023437 12.60585938 29.50046875 12.91796875 30.2734375 C15.40100829 36.33969409 18.03057391 42.236599 21.08203125 48.0390625 C22 50 22 50 22 52 C22.66 52 23.32 52 24 52 C25.42048353 54.01439259 26.71928343 56.02368638 28 58.125 C37.50132107 73.28713675 48.28213827 87.13163036 60.4609375 100.2421875 C62.44487236 102.39704597 64.36156514 104.57543102 66.25 106.8125 C74.39988857 116.20559191 83.50532498 124.98181872 93 133 C94.43980519 134.2890966 95.87716488 135.58092809 97.3125 136.875 C101.50747127 140.60945984 105.82148102 144.17783162 110.18359375 147.71484375 C112.03727892 149.21887402 113.88386989 150.73169717 115.72265625 152.25390625 C124.6092314 159.60610872 133.65104374 166.70836232 143.453125 172.80859375 C144.21882813 173.39833984 144.21882813 173.39833984 145 174 C145 174.66 145 175.32 145 176 C145.721875 176.268125 146.44375 176.53625 147.1875 176.8125 C149.99766383 177.99901362 152.48416557 179.27485639 155 181 C155 181.66 155 182.32 155 183 C152.03 182.01 152.03 182.01 149 181 C149 180.34 149 179.68 149 179 C148.278125 178.731875 147.55625 178.46375 146.8125 178.1875 C144.00233617 177.00098638 141.51583443 175.72514361 139 174 C139 173.34 139 172.68 139 172 C138.278125 171.731875 137.55625 171.46375 136.8125 171.1875 C131.47999042 168.93599596 128.07443821 166.07443821 124 162 C121.83379456 160.70480005 121.83379456 160.70480005 120 160 C120 159.34 120 158.68 120 158 C119.443125 157.731875 118.88625 157.46375 118.3125 157.1875 C113.40399292 154.66691528 109.86455708 151.96625595 106 148 C104.515 147.01 104.515 147.01 103 146 C103 145.34 103 144.68 103 144 C102.4225 143.9175 101.845 143.835 101.25 143.75 C98.3460664 142.78202213 96.96259396 141.31305716 95 139 C95 138.34 95 137.68 95 137 C94.01 136.67 93.02 136.34 92 136 C92 135.34 92 134.68 92 134 C91.34 133.814375 90.68 133.62875 90 133.4375 C83.33862863 130.24559289 78.55945588 124.66851272 74 119 C72.3540349 117.31288577 70.68762851 115.6454378 69 114 C67.33333333 112.33333333 65.66666667 110.66666667 64 109 C62.88625 107.948125 62.88625 107.948125 61.75 106.875 C60 105 60 105 59 102 C57.62614255 100.90091404 56.25175856 99.80248097 54.875 98.70703125 C50.74690764 94.94874717 47.43414914 90.38297823 44 86 C43.36964844 85.20078125 42.73929688 84.4015625 42.08984375 83.578125 C38 78.27969858 38 78.27969858 38 76 C37.34 76 36.68 76 36 76 C34.0546875 73.69921875 34.0546875 73.69921875 31.875 70.6875 C30.78832031 69.20830078 30.78832031 69.20830078 29.6796875 67.69921875 C28 65 28 65 28 62 C27.34 62 26.68 62 26 62 C22.4560838 57.12711522 19.53802785 51.84450583 18 46 C17.34 46 16.68 46 16 46 C14.74335022 43.09399739 14 41.20395416 14 38 C13.34 38 12.68 38 12 38 C11.67 35.69 11.34 33.38 11 31 C10.34 31 9.68 31 9 31 C-0.37361039 7.52755758 -0.37361039 7.52755758 0 0 Z " fill="#FCECEA" transform="translate(41,283)"/>
<path d="M0 0 C-3.06032459 1.62912132 -6.12363037 3.252557 -9.1875 4.875 C-10.05181641 5.33519531 -10.91613281 5.79539063 -11.80664062 6.26953125 C-13.06831055 6.93662109 -13.06831055 6.93662109 -14.35546875 7.6171875 C-15.12528076 8.02565918 -15.89509277 8.43413086 -16.68823242 8.85498047 C-19.08229997 10.04076321 -21.50776212 11.04011256 -24 12 C-24 12.66 -24 13.32 -24 14 C-25.546875 15.12109375 -25.546875 15.12109375 -27.75 16.4375 C-39.1770275 23.82829329 -52.32228367 35.57432689 -58 48 C-58.66 48 -59.32 48 -60 48 C-60.25136719 48.68320313 -60.50273438 49.36640625 -60.76171875 50.0703125 C-61.92950274 52.83320837 -63.29354149 55.39862593 -64.76635742 58.00878906 C-68.90472075 65.39120429 -71.96293225 72.73196611 -74.3631897 80.8729248 C-74.78022909 82.26592073 -75.20868327 83.65556206 -75.64974976 85.0411377 C-79.89843822 98.41794313 -80.62592462 110.72295456 -80.3125 124.6875 C-80.28733235 126.67249728 -80.26453444 128.65752606 -80.24414062 130.64257812 C-80.18993893 135.42918753 -80.10415696 140.21422788 -80 145 C-79.34 145 -78.68 145 -78 145 C-77.67 149.29 -77.34 153.58 -77 158 C-77.66 158 -78.32 158 -79 158 C-81.64153452 151.33873904 -82.45529177 145.38660498 -82.7890625 138.234375 C-82.86752026 133.2420315 -82.86752026 133.2420315 -85 129 C-85.12617338 126.73181338 -85.17580246 124.45916315 -85.1875 122.1875 C-85.20167969 120.94355469 -85.21585938 119.69960937 -85.23046875 118.41796875 C-85.00932144 115.13824167 -84.47418138 113.80326617 -83 111 C-82.79598145 108.38137432 -82.79598145 108.38137432 -82.9375 105.625 C-83.03902075 99.76022408 -82.63130785 95.2626157 -80 90 C-79.61709538 88.00889599 -79.27395385 86.00899487 -79 84 C-78.34 84 -77.68 84 -77 84 C-76.855625 82.783125 -76.71125 81.56625 -76.5625 80.3125 C-76.17219047 77.17329623 -75.67648144 74.0924866 -75 71 C-74.34 71 -73.68 71 -73 71 C-72.9175 70.195625 -72.835 69.39125 -72.75 68.5625 C-71.79803325 64.04065795 -69.98419821 60.15297299 -68 56 C-67.34 56 -66.68 56 -66 56 C-65.731875 55.28457031 -65.46375 54.56914062 -65.1875 53.83203125 C-63.98268693 50.95871061 -62.58762888 48.36662374 -61 45.6875 C-60.484375 44.80449219 -59.96875 43.92148438 -59.4375 43.01171875 C-58.963125 42.34785156 -58.48875 41.68398437 -58 41 C-57.34 41 -56.68 41 -56 41 C-55.6596875 39.9171875 -55.6596875 39.9171875 -55.3125 38.8125 C-53.73073192 35.42299697 -51.7009863 33.57535903 -49 31 C-48.278125 30.071875 -47.55625 29.14375 -46.8125 28.1875 C-43.19941688 23.74856931 -38.50465669 20.47703188 -34 17 C-33.113125 16.26007813 -32.22625 15.52015625 -31.3125 14.7578125 C-29 13 -29 13 -27 13 C-27 12.34 -27 11.68 -27 11 C-25.56705502 10.15885829 -24.12845595 9.32734313 -22.6875 8.5 C-21.88699219 8.0359375 -21.08648437 7.571875 -20.26171875 7.09375 C-18 6 -18 6 -15 6 C-15 5.34 -15 4.68 -15 4 C-12.09399739 2.74335022 -10.20395416 2 -7 2 C-7 1.34 -7 0.68 -7 0 C-3.98968256 -0.93423645 -3.13349732 -1.04449911 0 0 Z " fill="#FCEFED" transform="translate(118,125)"/>
<path d="M0 0 C0.33 0 0.66 0 1 0 C1.04898438 1.04800781 1.09796875 2.09601563 1.1484375 3.17578125 C1.22348143 4.55471354 1.29902857 5.9336185 1.375 7.3125 C1.4059375 8.00279297 1.436875 8.69308594 1.46875 9.40429688 C1.68124919 13.06990789 1.91933861 14.87900792 4 18 C4.25878906 20.00537109 4.25878906 20.00537109 4.265625 22.2734375 C4.26949219 23.5109375 4.26949219 23.5109375 4.2734375 24.7734375 C4.26570312 25.63195312 4.25796875 26.49046875 4.25 27.375 C4.26160156 28.65117187 4.26160156 28.65117187 4.2734375 29.953125 C4.2592335 34.51260828 3.87692338 37.79483196 2 42 C1.72123482 44.0959986 1.51411256 46.20262611 1.375 48.3125 C1.30023437 49.38113281 1.22546875 50.44976562 1.1484375 51.55078125 C1.09945312 52.35902344 1.05046875 53.16726563 1 54 C0.34 54 -0.32 54 -1 54 C-1.33 56.97 -1.66 59.94 -2 63 C-2.66 63 -3.32 63 -4 63 C-4.03867187 63.87398438 -4.03867187 63.87398438 -4.078125 64.765625 C-4.57601158 71.96234913 -6.50804526 78.25433647 -9 85 C-9.66 85 -10.32 85 -11 85 C-11.144375 86.093125 -11.28875 87.18625 -11.4375 88.3125 C-12 92 -12 92 -13 95 C-13.66 95 -14.32 95 -15 95 C-15.16628906 96.32451172 -15.16628906 96.32451172 -15.3359375 97.67578125 C-16.0026931 101.01348134 -16.95822789 103.24168085 -18.625 106.1875 C-19.42357422 107.60095703 -19.42357422 107.60095703 -20.23828125 109.04296875 C-22.58925 112.98905155 -25.05618341 116.85133374 -27.58203125 120.6875 C-29.13253589 123.02040334 -29.13253589 123.02040334 -30 126 C-30.66 126 -31.32 126 -32 126 C-32.226875 126.86625 -32.45375 127.7325 -32.6875 128.625 C-34.24025095 132.61778814 -36.14319895 134.84248305 -39 138 C-39.99 137.67 -40.98 137.34 -42 137 C-41.5875 136.42894531 -41.175 135.85789062 -40.75 135.26953125 C-35.83566249 128.36971363 -31.38711346 121.24321385 -27 114 C-26.45085938 113.13246094 -25.90171875 112.26492188 -25.3359375 111.37109375 C-21.46690571 105.19056348 -18.63730888 98.79165384 -16 92 C-15.34 92 -14.68 92 -14 92 C-13.896875 90.989375 -13.79375 89.97875 -13.6875 88.9375 C-12.97556031 84.86002722 -11.71313476 81.75571851 -10 78 C-7.51361374 72.36582423 -6.38479589 66.90829018 -5.46875 60.82421875 C-4.91048774 57.46068862 -3.94424299 54.2733757 -3 51 C-2.57884276 48.33582552 -2.28252936 45.68402895 -2 43 C-1.34 43 -0.68 43 0 43 C-0.03552979 41.83952148 -0.07105957 40.67904297 -0.10766602 39.48339844 C-0.23811074 35.17479525 -0.36124402 30.86600868 -0.48217773 26.55712891 C-0.53552266 24.69281298 -0.59084602 22.82855257 -0.64819336 20.96435547 C-0.73031405 18.28365039 -0.8053005 15.60282573 -0.87890625 12.921875 C-0.90594131 12.08944275 -0.93297638 11.2570105 -0.96083069 10.39935303 C-0.98092697 9.61884583 -1.00102325 8.83833862 -1.02172852 8.03417969 C-1.04171402 7.35023132 -1.06169952 6.66628296 -1.08229065 5.96160889 C-0.99401505 3.85733339 -0.57653538 2.0208995 0 0 Z M-1 49 C0 52 0 52 0 52 Z " fill="#F3D7D9" transform="translate(548,219)"/>
<path d="M0 0 C3.23697015 1.07899005 3.70324392 1.583061 5.75 4.125 C13.97584821 13.82413445 23.29018912 22.80013811 33 31 C34.43980519 32.2890966 35.87716488 33.58092809 37.3125 34.875 C41.50747127 38.60945984 45.82148102 42.17783162 50.18359375 45.71484375 C52.03727892 47.21887402 53.88386989 48.73169717 55.72265625 50.25390625 C64.6092314 57.60610872 73.65104374 64.70836232 83.453125 70.80859375 C83.96359375 71.20175781 84.4740625 71.59492188 85 72 C85 72.66 85 73.32 85 74 C85.721875 74.268125 86.44375 74.53625 87.1875 74.8125 C89.99766383 75.99901362 92.48416557 77.27485639 95 79 C95 79.66 95 80.32 95 81 C93.02 80.34 91.04 79.68 89 79 C89 78.34 89 77.68 89 77 C88.278125 76.731875 87.55625 76.46375 86.8125 76.1875 C84.00233617 75.00098638 81.51583443 73.72514361 79 72 C79 71.34 79 70.68 79 70 C78.278125 69.731875 77.55625 69.46375 76.8125 69.1875 C71.47999042 66.93599596 68.07443821 64.07443821 64 60 C61.83379456 58.70480005 61.83379456 58.70480005 60 58 C60 57.34 60 56.68 60 56 C59.443125 55.731875 58.88625 55.46375 58.3125 55.1875 C53.40399292 52.66691528 49.86455708 49.96625595 46 46 C45.01 45.34 44.02 44.68 43 44 C43 43.34 43 42.68 43 42 C42.4225 41.9175 41.845 41.835 41.25 41.75 C38.3460664 40.78202213 36.96259396 39.31305716 35 37 C35 36.34 35 35.68 35 35 C34.01 34.67 33.02 34.34 32 34 C32 33.34 32 32.68 32 32 C31.34 31.814375 30.68 31.62875 30 31.4375 C23.33862863 28.24559289 18.55945588 22.66851272 14 17 C12.3540349 15.31288577 10.68762851 13.6454378 9 12 C7.33333333 10.33333333 5.66666667 8.66666667 4 7 C3.236875 6.29875 2.47375 5.5975 1.6875 4.875 C0 3 0 3 0 0 Z " fill="#FCECEB" transform="translate(101,385)"/>
<path d="M0 0 C1.00353516 -0.01836914 1.00353516 -0.01836914 2.02734375 -0.03710938 C6.13444017 -0.0492128 9.00581556 0.61988655 12.75 2.1875 C16.06728763 2.50826588 19.36135825 2.62675099 22.69140625 2.74609375 C25.95494878 3.21707754 27.3521894 3.9890184 29.75 6.1875 C22.44299879 6.31348278 22.44299879 6.31348278 19.03588867 5.6940918 C13.63818083 4.86191676 8.216253 4.96268302 2.7668457 4.94726562 C0.71718495 4.93763942 -1.33143656 4.90660175 -3.38085938 4.875 C-11.08198608 4.81480632 -18.09298448 5.50536418 -25.54541016 7.52172852 C-28.92136888 8.35276656 -31.79892534 8.42827265 -35.25 8.1875 C-35.25 8.8475 -35.25 9.5075 -35.25 10.1875 C-41.4955985 12.526631 -47.72522376 14.7017663 -54.15625 16.4765625 C-56.51238473 17.17628941 -56.51238473 17.17628941 -59.25 19.1875 C-60.24 19.1875 -61.23 19.1875 -62.25 19.1875 C-62.25 18.5275 -62.25 17.8675 -62.25 17.1875 C-55.11241012 13.76437016 -47.89347059 10.89240459 -40.4140625 8.30078125 C-38.44054232 7.60639452 -36.4798109 6.87297833 -34.54296875 6.08203125 C-31.80953742 5.01566707 -29.14840044 4.59192797 -26.25 4.1875 C-26.25 3.8575 -26.25 3.5275 -26.25 3.1875 C-24.96222656 3.05472656 -23.67445313 2.92195313 -22.34765625 2.78515625 C-20.66924638 2.60700101 -18.99086227 2.42860308 -17.3125 2.25 C-16.46236328 2.16298828 -15.61222656 2.07597656 -14.73632812 1.98632812 C-13.92744141 1.89931641 -13.11855469 1.81230469 -12.28515625 1.72265625 C-11.5362915 1.644104 -10.78742676 1.56555176 -10.01586914 1.48461914 C-1.19903766 0.00112904 -1.19903766 0.00112904 0 0 Z " fill="#FEFDFD" transform="translate(419.25,111.8125)"/>
<path d="M0 0 C0.99 0.33 1.98 0.66 3 1 C2.45472656 1.35191406 1.90945313 1.70382813 1.34765625 2.06640625 C-5.79649245 6.74368651 -12.52592863 11.79584817 -18.9375 17.4375 C-22 20 -22 20 -24 20 C-24.26554687 20.59683594 -24.53109375 21.19367188 -24.8046875 21.80859375 C-26.03554775 24.06517087 -27.2346657 25.34361462 -29.125 27.0625 C-33.75703031 31.5597103 -37.32980753 36.71104378 -41 42 C-41.57234375 42.80050781 -42.1446875 43.60101563 -42.734375 44.42578125 C-46.01615862 49.12912956 -48.21502184 53.54590006 -50 59 C-50.66 59 -51.32 59 -52 59 C-52.99 63.95 -52.99 63.95 -54 69 C-54.66 69 -55.32 69 -56 69 C-56.18175781 69.92619141 -56.18175781 69.92619141 -56.3671875 70.87109375 C-57.50074568 76.5999224 -58.71369966 82.30352707 -60 88 C-60.99 88 -61.98 88 -63 88 C-63.33 85.69 -63.66 83.38 -64 81 C-63.34 81.33 -62.68 81.66 -62 82 C-61.35284867 79.9170757 -60.70732834 77.83364461 -60.0625 75.75 C-59.70285156 74.58984375 -59.34320313 73.4296875 -58.97265625 72.234375 C-58.24933363 69.82910942 -57.57457589 67.44345956 -57 65 C-56.34 65 -55.68 65 -55 65 C-54.9175 64.195625 -54.835 63.39125 -54.75 62.5625 C-53.79803325 58.04065795 -51.98419821 54.15297299 -50 50 C-49.34 50 -48.68 50 -48 50 C-47.85884766 49.18789062 -47.85884766 49.18789062 -47.71484375 48.359375 C-46.78860747 45.30228912 -45.2754644 42.94230995 -43.5625 40.25 C-42.94503906 39.26515625 -42.32757813 38.2803125 -41.69140625 37.265625 C-41.13324219 36.51796875 -40.57507813 35.7703125 -40 35 C-39.34 35 -38.68 35 -38 35 C-37.6596875 33.9171875 -37.6596875 33.9171875 -37.3125 32.8125 C-35.73073192 29.42299697 -33.7009863 27.57535903 -31 25 C-30.195625 24.01 -29.39125 23.02 -28.5625 22 C-25.8746195 18.85321308 -23.29375225 16.48861281 -20 14 C-19.34 14 -18.68 14 -18 14 C-18 13.34 -18 12.68 -18 12 C-17.401875 11.731875 -16.80375 11.46375 -16.1875 11.1875 C-13.95672092 10.1106021 -13.95672092 10.1106021 -12.375 8.375 C-11.92125 7.92125 -11.4675 7.4675 -11 7 C-10.34 7 -9.68 7 -9 7 C-9 6.34 -9 5.68 -9 5 C-7.6078125 4.319375 -7.6078125 4.319375 -6.1875 3.625 C-2.96078611 2.0578367 -2.96078611 2.0578367 0 0 Z " fill="#F8E9EB" transform="translate(354,131)"/>
<path d="M0 0 C1.2683091 -0.00412399 1.2683091 -0.00412399 2.5622406 -0.0083313 C3.48652863 -0.00114075 4.41081665 0.0060498 5.3631134 0.01345825 C6.33890854 0.0131662 7.31470367 0.01287415 8.32006836 0.01257324 C11.55040837 0.01396831 14.78051868 0.02953796 18.01081848 0.04519653 C20.24855422 0.04892603 22.48629159 0.0517733 24.72402954 0.05377197 C30.61774696 0.06141339 36.51136603 0.08106631 42.40504456 0.10317993 C48.41750254 0.12362737 54.42997639 0.13277133 60.44245911 0.14285278 C72.24263256 0.16431167 84.04273297 0.1984538 95.84284973 0.24050903 C95.84284973 0.57050903 95.84284973 0.90050903 95.84284973 1.24050903 C90.37398989 2.15857829 85.09828257 2.39134782 79.55867004 2.39822388 C78.20374199 2.40584496 78.20374199 2.40584496 76.82144165 2.41362 C74.87137553 2.42427349 72.92129757 2.4329131 70.97121429 2.43973923 C67.88651228 2.45157881 64.8019471 2.47104025 61.71730042 2.49285889 C52.95109062 2.55433622 44.18489958 2.60865144 35.41853333 2.64187622 C30.04816683 2.66277419 24.67805804 2.6980249 19.30783844 2.74263382 C17.26169099 2.75681853 15.21549806 2.76552181 13.16930389 2.7686882 C10.31574294 2.77357552 7.46287275 2.79667243 4.60945129 2.82400513 C3.33769798 2.81949593 3.33769798 2.81949593 2.04025269 2.81489563 C-2.24470871 2.69901262 -2.24470871 2.69901262 -5.77241898 4.76500893 C-6.45786097 5.49538148 -6.45786097 5.49538148 -7.15715027 6.24050903 C-7.81715027 6.24050903 -8.47715027 6.24050903 -9.15715027 6.24050903 C-7.18686304 1.69369235 -4.97664901 -0.01248845 0 0 Z " fill="#F5CCCA" transform="translate(234.1571502685547,396.7594909667969)"/>
<path d="M0 0 C1.12535156 0.00580078 1.12535156 0.00580078 2.2734375 0.01171875 C3.02367187 0.00785156 3.77390625 0.00398438 4.546875 0 C10.14682697 0.01010822 10.14682697 0.01010822 11.2734375 1.13671875 C14.12872357 1.53710175 16.97080237 1.88854145 19.8359375 2.19921875 C21.04540039 2.33553711 21.04540039 2.33553711 22.27929688 2.47460938 C24.27691127 2.69919324 26.2751231 2.91845111 28.2734375 3.13671875 C28.2734375 3.79671875 28.2734375 4.45671875 28.2734375 5.13671875 C29.5934375 5.46671875 30.9134375 5.79671875 32.2734375 6.13671875 C30.89855463 6.16421641 29.52350359 6.18333515 28.1484375 6.19921875 C26.99988281 6.21662109 26.99988281 6.21662109 25.828125 6.234375 C23.2734375 6.13671875 23.2734375 6.13671875 20.54345703 5.64331055 C15.16396956 4.80991974 9.77990307 4.91190558 4.34521484 4.89648438 C2.30653537 4.88687476 0.26890826 4.85584545 -1.76953125 4.82421875 C-9.69248687 4.76223056 -16.9478983 5.53181518 -24.640625 7.48925781 C-27.76073088 8.14388762 -30.54872214 8.25004264 -33.7265625 8.13671875 C-33.7265625 8.79671875 -33.7265625 9.45671875 -33.7265625 10.13671875 C-37.6865625 10.79671875 -41.6465625 11.45671875 -45.7265625 12.13671875 C-45.7265625 11.47671875 -45.7265625 10.81671875 -45.7265625 10.13671875 C-45.01628906 9.93175781 -44.30601563 9.72679688 -43.57421875 9.515625 C-42.65511719 9.24621094 -41.73601562 8.97679688 -40.7890625 8.69921875 C-39.87253906 8.43238281 -38.95601563 8.16554688 -38.01171875 7.890625 C-35.7863132 7.34645824 -35.7863132 7.34645824 -34.7265625 6.13671875 C-32.88056562 5.74217652 -31.02430428 5.39495009 -29.1640625 5.07421875 C-28.15214844 4.89761719 -27.14023438 4.72101563 -26.09765625 4.5390625 C-25.31519531 4.40628906 -24.53273437 4.27351563 -23.7265625 4.13671875 C-23.7265625 3.80671875 -23.7265625 3.47671875 -23.7265625 3.13671875 C-22.51097656 3.00394531 -21.29539063 2.87117188 -20.04296875 2.734375 C-18.45830766 2.55621784 -16.8736736 2.37782 -15.2890625 2.19921875 C-14.48662109 2.11220703 -13.68417969 2.02519531 -12.85742188 1.93554688 C-8.16335035 1.40077923 -4.71126031 0.00850408 0 0 Z " fill="#FEFDFD" transform="translate(163.7265625,111.86328125)"/>
<path d="M0 0 C5.12194732 2.97787635 7.83414689 5.97188035 11 11 C11 11.66 11 12.32 11 13 C11.66 13 12.32 13 13 13 C18.96937689 20.81557593 28 33.85415026 28 44 C28.66 44 29.32 44 30 44 C31.13764351 48.26616316 32 51.56486311 32 56 C32.66 56 33.32 56 34 56 C34.95261487 60.76307437 35.08333357 65.1666528 35 70 C33.5512538 67.29410248 32.58811697 64.78943268 31.88671875 61.8046875 C31.59692139 60.6149231 31.59692139 60.6149231 31.30126953 59.40112305 C31.09872559 58.56750244 30.89618164 57.73388184 30.6875 56.875 C28.86330474 49.68945039 26.65395449 43.47096968 23 37 C21.72628332 34.53261277 20.48861473 32.04764899 19.25 29.5625 C18.65703125 28.38816406 18.0640625 27.21382812 17.453125 26.00390625 C16 23 16 23 15 20 C14.34 20 13.68 20 13 20 C11.73828125 18.3125 11.73828125 18.3125 10.3125 16 C7.65925309 11.84652212 4.71173094 8.29415853 1.3203125 4.7265625 C0 3 0 3 0 0 Z " fill="#F9EAEB" transform="translate(512,153)"/>
<path d="M0 0 C2 2 2 2 2.24050903 4.10073853 C2.23606781 4.96677704 2.23162659 5.83281555 2.22705078 6.72509766 C2.22689972 7.70596344 2.22674866 8.68682922 2.22659302 9.69741821 C2.21627045 10.75891083 2.20594788 11.82040344 2.1953125 12.9140625 C2.1924826 13.99883881 2.18965271 15.08361511 2.18673706 16.20126343 C2.17551578 19.67595313 2.15040762 23.15038782 2.125 26.625 C2.11497272 28.97655879 2.10584643 31.3281216 2.09765625 33.6796875 C2.07557011 39.45321244 2.04207345 45.22658801 2 51 C2.66 51 3.32 51 4 51 C4.33 55.29 4.66 59.58 5 64 C4.34 64 3.68 64 3 64 C0.35846548 57.33873904 -0.45529177 51.38660498 -0.7890625 44.234375 C-0.86752026 39.2420315 -0.86752026 39.2420315 -3 35 C-3.12617338 32.73181338 -3.17580246 30.45916315 -3.1875 28.1875 C-3.20167969 26.94355469 -3.21585938 25.69960937 -3.23046875 24.41796875 C-3.00932144 21.13824167 -2.47418138 19.80326617 -1 17 C-0.79598145 14.38137432 -0.79598145 14.38137432 -0.9375 11.625 C-1.01810459 7.61089146 -0.85302479 3.94523966 0 0 Z " fill="#FFFEFE" transform="translate(36,219)"/>
<path d="M0 0 C0.33 0 0.66 0 1 0 C1.04898438 1.04800781 1.09796875 2.09601563 1.1484375 3.17578125 C1.22348143 4.55471354 1.29902857 5.9336185 1.375 7.3125 C1.4059375 8.00279297 1.436875 8.69308594 1.46875 9.40429688 C1.68124919 13.06990789 1.91933861 14.87900792 4 18 C4.25878906 20.00537109 4.25878906 20.00537109 4.265625 22.2734375 C4.26820313 23.0984375 4.27078125 23.9234375 4.2734375 24.7734375 C4.26570312 25.63195312 4.25796875 26.49046875 4.25 27.375 C4.25773438 28.22578125 4.26546875 29.0765625 4.2734375 29.953125 C4.25928837 34.49499608 3.9173126 37.82142941 2 42 C1.55450643 44.6616187 1.55450643 44.6616187 1.375 47.3125 C1.26285156 48.63701172 1.26285156 48.63701172 1.1484375 49.98828125 C1.09945312 50.65214844 1.05046875 51.31601562 1 52 C-1.09123311 48.86315034 -1.24943212 48.15973605 -1.24291992 44.59204102 C-1.24599655 43.70424454 -1.24907318 42.81644806 -1.25224304 41.90174866 C-1.24505753 40.94546066 -1.23787201 39.98917267 -1.23046875 39.00390625 C-1.23001053 38.01881577 -1.22955231 37.03372528 -1.2290802 36.01878357 C-1.22605856 33.9349548 -1.2181749 31.85112827 -1.20581055 29.76733398 C-1.1875916 26.57853177 -1.18530065 23.39002063 -1.18554688 20.20117188 C-1.18063007 18.17708082 -1.17480105 16.15299174 -1.16796875 14.12890625 C-1.16685593 13.17464249 -1.1657431 12.22037872 -1.16459656 11.23719788 C-1.15821671 10.34624924 -1.15183685 9.4553006 -1.14526367 8.53735352 C-1.14145187 7.75586441 -1.13764008 6.97437531 -1.13371277 6.16920471 C-0.99990164 3.99840438 -0.59689852 2.08694631 0 0 Z " fill="#FEFCFC" transform="translate(548,219)"/>
<path d="M0 0 C3.7910119 1.44950455 7.3874638 3.15172566 11 5 C11 5.66 11 6.32 11 7 C12.98 7.66 14.96 8.32 17 9 C17 9.66 17 10.32 17 11 C18.98 11.66 20.96 12.32 23 13 C23 13.66 23 14.32 23 15 C25.475 15.495 25.475 15.495 28 16 C28 16.66 28 17.32 28 18 C28.73089844 18.27457031 29.46179688 18.54914063 30.21484375 18.83203125 C32.84953597 19.93690218 35.13538728 21.18852176 37.5625 22.6875 C43.32693473 26.20876103 49.15893481 29.60776626 55 33 C54.505 33.99 54.505 33.99 54 35 C52.02 34.34 50.04 33.68 48 33 C48 32.34 48 31.68 48 31 C47.29875 30.731875 46.5975 30.46375 45.875 30.1875 C42.8350176 28.9318551 39.9272226 27.49764877 37 26 C37 25.34 37 24.68 37 24 C35.35 23.67 33.7 23.34 32 23 C32 22.34 32 21.68 32 21 C29.69 20.34 27.38 19.68 25 19 C25 18.34 25 17.68 25 17 C23.68 16.67 22.36 16.34 21 16 C21 15.34 21 14.68 21 14 C19.2984375 13.566875 19.2984375 13.566875 17.5625 13.125 C16.386875 12.75375 15.21125 12.3825 14 12 C13.67 11.34 13.34 10.68 13 10 C12.01 9.67 11.02 9.34 10 9 C10 8.34 10 7.68 10 7 C8.02 6.34 6.04 5.68 4 5 C4 4.34 4 3.68 4 3 C2.68 2.67 1.36 2.34 0 2 C0 1.34 0 0.68 0 0 Z " fill="#FBE2DF" transform="translate(196,466)"/>
<path d="M0 0 C0.99 0 1.98 0 3 0 C5 3 5 3 5 6 C5.99 6.33 6.98 6.66 8 7 C8.33 8.65 8.66 10.3 9 12 C9.66 12 10.32 12 11 12 C11.33 13.65 11.66 15.3 12 17 C12.66 17 13.32 17 14 17 C16.37113483 21.96284034 18.43174347 26.45949887 19 32 C19.66 32 20.32 32 21 32 C21.70005949 34.07914664 22.38462244 36.16351586 23.0625 38.25 C23.44535156 39.41015625 23.82820313 40.5703125 24.22265625 41.765625 C24.95211763 44.80077085 25.11889082 46.15703213 24 49 C23.43620608 47.60468879 22.87408783 46.20870058 22.3125 44.8125 C21.94640625 43.90242188 21.5803125 42.99234375 21.203125 42.0546875 C20.37968836 39.96401396 19.57860934 37.86443425 18.796875 35.7578125 C16.59767034 29.84223034 14.29272351 24.30540806 11.015625 18.90234375 C9.96991138 16.94364171 9.44417116 15.16774837 9 13 C8.34 13 7.68 13 7 13 C6.34 11.02 5.68 9.04 5 7 C4.34 7 3.68 7 3 7 C0 2.61538462 0 2.61538462 0 0 Z " fill="#FCF0EE" transform="translate(267,164)"/>
<path d="M0 0 C0.69738281 0.00902344 1.39476562 0.01804687 2.11328125 0.02734375 C3.82566958 0.05080112 5.53788004 0.08666896 7.25 0.125 C7.25 0.455 7.25 0.785 7.25 1.125 C1.48918159 2.4232126 -3.83739655 3.38206972 -9.75 3.125 C-9.75 3.785 -9.75 4.445 -9.75 5.125 C-15.9955985 7.464131 -22.22522376 9.6392663 -28.65625 11.4140625 C-31.01238473 12.11378941 -31.01238473 12.11378941 -33.75 14.125 C-34.74 14.125 -35.73 14.125 -36.75 14.125 C-36.75 13.465 -36.75 12.805 -36.75 12.125 C-29.58155415 8.68707189 -22.336526 5.81780836 -14.81640625 3.23828125 C-11.86789235 2.27418527 -11.86789235 2.27418527 -9.82421875 0.98828125 C-6.62630179 -0.34267854 -3.40215471 -0.08360683 0 0 Z " fill="#F1CFD2" transform="translate(393.75,116.875)"/>
<path d="M0 0 C0.66 0 1.32 0 2 0 C1.34 2.31 0.68 4.62 0 7 C-0.66 7 -1.32 7 -2 7 C-2.66 10.3 -3.32 13.6 -4 17 C-4.66 17 -5.32 17 -6 17 C-6.12117188 17.61746094 -6.24234375 18.23492187 -6.3671875 18.87109375 C-7.50074568 24.5999224 -8.71369966 30.30352707 -10 36 C-10.99 36 -11.98 36 -13 36 C-13.33 33.69 -13.66 31.38 -14 29 C-13.34 29.33 -12.68 29.66 -12 30 C-11.35284867 27.9170757 -10.70732834 25.83364461 -10.0625 23.75 C-9.70285156 22.58984375 -9.34320313 21.4296875 -8.97265625 20.234375 C-8.24933363 17.82910942 -7.57457589 15.44345956 -7 13 C-6.34 13 -5.68 13 -5 13 C-4.9175 12.154375 -4.835 11.30875 -4.75 10.4375 C-3.84266147 6.27886509 -2.23458727 3.60417301 0 0 Z " fill="#FAEFF0" transform="translate(304,183)"/>
<path d="M0 0 C0.66 0 1.32 0 2 0 C2.226875 1.2375 2.45375 2.475 2.6875 3.75 C3.5633079 7.77363918 4.91845802 11.35225626 6.5625 15.125 C8.47457147 19.52276438 9.67450023 23.22600332 10 28 C10.66 28 11.32 28 12 28 C12.33 29.65 12.66 31.3 13 33 C10.03019227 31.97440962 9.13142666 31.25253786 7.65625 28.41796875 C7.2746875 27.35191406 6.893125 26.28585937 6.5 25.1875 C5.87544922 23.44533203 5.87544922 23.44533203 5.23828125 21.66796875 C4.62533203 19.85232422 4.62533203 19.85232422 4 18 C3.60167969 16.82050781 3.20335937 15.64101563 2.79296875 14.42578125 C-0.24822631 5.00130045 -0.24822631 5.00130045 0 0 Z " fill="#FADEDB" transform="translate(41,283)"/>
<path d="M0 0 C-1.34209166 4.02627499 -3.48701801 4.75169153 -7 7 C-7.495 7.495 -7.99 7.99 -8.5 8.5 C-10.72470445 10.72470445 -13.38757515 12.25838343 -16 14 C-16.53625 14.556875 -17.0725 15.11375 -17.625 15.6875 C-19.32154637 17.30693062 -20.71949044 17.6068087 -23 18 C-23 18.66 -23 19.32 -23 20 C-23.66 20 -24.32 20 -25 20 C-23.57190534 16.58655089 -21.89894609 14.85005761 -18.97265625 12.6171875 C-18.18052734 12.00746094 -17.38839844 11.39773438 -16.57226562 10.76953125 C-15.74404297 10.14433594 -14.91582031 9.51914062 -14.0625 8.875 C-13.23814453 8.24207031 -12.41378906 7.60914063 -11.56445312 6.95703125 C-2.47304605 0 -2.47304605 0 0 0 Z " fill="#F8E8E9" transform="translate(432,434)"/>
<path d="M0 0 C4.29 0 8.58 0 13 0 C13 0.66 13 1.32 13 2 C14.258125 2.144375 15.51625 2.28875 16.8125 2.4375 C19.42667123 2.73748686 21.47439892 3.15813297 24 4 C24 4.66 24 5.32 24 6 C24.639375 6.12375 25.27875 6.2475 25.9375 6.375 C26.9584375 6.684375 26.9584375 6.684375 28 7 C28.33 7.66 28.66 8.32 29 9 C23.66380311 7.92771457 18.5590373 6.58032533 13.41796875 4.796875 C9.0003214 3.3409783 4.49650625 2.18506053 0 1 C0 0.67 0 0.34 0 0 Z " fill="#F2D2D5" transform="translate(443,118)"/>
<path d="M0 0 C0.33 0.99 0.66 1.98 1 3 C0.34 3 -0.32 3 -1 3 C-1 3.66 -1 4.32 -1 5 C-2.6796875 6.2890625 -2.6796875 6.2890625 -4.875 7.625 C-5.59429687 8.07101562 -6.31359375 8.51703125 -7.0546875 8.9765625 C-9 10 -9 10 -11 10 C-11 10.66 -11 11.32 -11 12 C-12.98 12.66 -14.96 13.32 -17 14 C-17 14.66 -17 15.32 -17 16 C-18.32 16.33 -19.64 16.66 -21 17 C-21 17.66 -21 18.32 -21 19 C-22.32 19.33 -23.64 19.66 -25 20 C-23.61906821 16.68858194 -22.2926846 15.23950222 -19.25 13.375 C-14.87207024 10.59490712 -10.64677011 7.6512796 -6.4375 4.625 C-5.48955566 3.9451001 -5.48955566 3.9451001 -4.52246094 3.25146484 C-3.01407571 2.1688937 -1.50690595 1.08462932 0 0 Z " fill="#F4DCDE" transform="translate(406,452)"/>
<path d="M0 0 C0.99 0.33 1.98 0.66 3 1 C-0.97529325 5.88393171 -5.2625752 10.40103877 -9.6875 14.875 C-10.25815186 15.45854248 -10.82880371 16.04208496 -11.41674805 16.64331055 C-15.64520809 20.88173603 -15.64520809 20.88173603 -19 22 C-19 19 -19 19 -17.6015625 17.52734375 C-16.94929688 17.00269531 -16.29703125 16.47804688 -15.625 15.9375 C-6.71839762 8.88077813 -6.71839762 8.88077813 0 0 Z " fill="#F8E7E9" transform="translate(479,388)"/>
<path d="M0 0 C0.66 0.33 1.32 0.66 2 1 C2 1.66 2 2.32 2 3 C0.35 3.33 -1.3 3.66 -3 4 C-3 4.66 -3 5.32 -3 6 C-5.31 6.66 -7.62 7.32 -10 8 C-10 8.66 -10 9.32 -10 10 C-11.74294678 10.86846831 -13.49468663 11.71930627 -15.25 12.5625 C-16.22453125 13.03816406 -17.1990625 13.51382813 -18.203125 14.00390625 C-21.09856297 15.03510273 -22.19966161 15.11346788 -25 14 C-22.35261084 12.5393715 -21.10551666 12 -18 12 C-18 11.34 -18 10.68 -18 10 C-17.3709375 9.69707031 -16.741875 9.39414062 -16.09375 9.08203125 C-11.03198284 6.60450967 -6.24692393 4.00506679 -1.59375 0.8203125 C-1.0678125 0.54960937 -0.541875 0.27890625 0 0 Z " fill="#F2D3D6" transform="translate(331,500)"/>
<path d="M0 0 C2 2 2 2 2.1953125 3.9453125 C2.13020833 5.96354167 2.06510417 7.98177083 2 10 C2.66 10 3.32 10 4 10 C4.33 14.29 4.66 18.58 5 23 C4.34 23 3.68 23 3 23 C0.16730148 15.7335125 -0.95347531 8.81614727 -1 1 C-0.67 0.67 -0.34 0.34 0 0 Z " fill="#FDF4F3" transform="translate(36,260)"/>
<path d="M0 0 C-3.26613695 1.91302307 -5.99445248 2.35674661 -9.75 2.625 C-10.73484375 2.69976562 -11.7196875 2.77453125 -12.734375 2.8515625 C-13.48203125 2.90054688 -14.2296875 2.94953125 -15 3 C-15 3.66 -15 4.32 -15 5 C-18.96 5.66 -22.92 6.32 -27 7 C-27 6.34 -27 5.68 -27 5 C-26.28972656 4.79503906 -25.57945313 4.59007813 -24.84765625 4.37890625 C-23.92855469 4.10949219 -23.00945312 3.84007813 -22.0625 3.5625 C-20.68771484 3.16224609 -20.68771484 3.16224609 -19.28515625 2.75390625 C-17.0597507 2.20973949 -17.0597507 2.20973949 -16 1 C-10.63562868 -0.00581962 -5.44700547 -0.11116338 0 0 Z " fill="#FCEAE8" transform="translate(145,117)"/>
<path d="M0 0 C3.7910119 1.44950455 7.3874638 3.15172566 11 5 C11 5.66 11 6.32 11 7 C12.98 7.66 14.96 8.32 17 9 C17 9.66 17 10.32 17 11 C18.98 11.66 20.96 12.32 23 13 C20.301935 13.99928333 19.11989571 14.03624754 16.3125 13.1875 C14 12 14 12 13 10 C12.01 9.67 11.02 9.34 10 9 C10 8.34 10 7.68 10 7 C8.02 6.34 6.04 5.68 4 5 C4 4.34 4 3.68 4 3 C2.68 2.67 1.36 2.34 0 2 C0 1.34 0 0.68 0 0 Z " fill="#FADDDA" transform="translate(196,466)"/>
<path d="M0 0 C0.33 0 0.66 0 1 0 C1.06058594 0.62648438 1.12117187 1.25296875 1.18359375 1.8984375 C1.26738281 2.71570313 1.35117187 3.53296875 1.4375 4.375 C1.55931641 5.59316406 1.55931641 5.59316406 1.68359375 6.8359375 C1.89090114 9.04272805 1.89090114 9.04272805 3 11 C2.34 11 1.68 11 1 11 C0.67 13.97 0.34 16.94 0 20 C-0.66 20 -1.32 20 -2 20 C-2 21.65 -2 23.3 -2 25 C-2.66 25 -3.32 25 -4 25 C-3.54620561 19.06484704 -2.69636272 13.72522417 -1 8 C-0.57564362 5.33598494 -0.28256949 2.68441013 0 0 Z " fill="#ECBFC3" transform="translate(546,262)"/>
<path d="M0 0 C4.13123342 3.65455264 7.34045281 8.18621958 10 13 C10 13.99 10 14.98 10 16 C4.25 11.375 4.25 11.375 2 8 C2 7.01 2 6.02 2 5 C1.34 5 0.68 5 0 5 C-0.33 4.01 -0.66 3.02 -1 2 C-0.67 1.34 -0.34 0.68 0 0 Z " fill="#FADEDB" transform="translate(67,340)"/>
<path d="M0 0 C1.28961193 2.57922387 0.79211692 3.40291211 0.00390625 6.1328125 C-0.22490234 6.93847656 -0.45371094 7.74414062 -0.68945312 8.57421875 C-0.93630859 9.41597656 -1.18316406 10.25773438 -1.4375 11.125 C-1.68048828 11.97449219 -1.92347656 12.82398438 -2.17382812 13.69921875 C-2.7761431 15.80141612 -3.38510525 17.90145431 -4 20 C-4.33 20 -4.66 20 -5 20 C-5.08333357 15.1666528 -4.95261487 10.76307437 -4 6 C-3.34 6 -2.68 6 -2 6 C-1.855625 5.195625 -1.71125 4.39125 -1.5625 3.5625 C-1 1 -1 1 0 0 Z " fill="#FADFDC" transform="translate(43,203)"/>
<path d="M0 0 C1.485 0.99 1.485 0.99 3 2 C3 3.32 3 4.64 3 6 C3.66 6 4.32 6 5 6 C5.95261487 10.76307437 6.08333357 15.1666528 6 20 C3.75461966 16.15655618 2.8973264 12.0361981 1.875 7.75 C1.69324219 7.00492188 1.51148438 6.25984375 1.32421875 5.4921875 C0.87852501 3.6624974 0.43868041 1.83138425 0 0 Z " fill="#F4D9DB" transform="translate(541,203)"/>
<path d="M0 0 C0.33 0.99 0.66 1.98 1 3 C0.34 3 -0.32 3 -1 3 C-1 3.66 -1 4.32 -1 5 C-1.99 5.33 -2.98 5.66 -4 6 C-4.33 6.66 -4.66 7.32 -5 8 C-7.28515625 8.8515625 -7.28515625 8.8515625 -10.0625 9.625 C-10.98160156 9.88539063 -11.90070313 10.14578125 -12.84765625 10.4140625 C-13.55792969 10.60742188 -14.26820313 10.80078125 -15 11 C-12.4650336 8.18911889 -9.58096754 6.36286905 -6.375 4.375 C-3.00896249 2.42174335 -3.00896249 2.42174335 0 0 Z " fill="#F1CFD2" transform="translate(380,470)"/>
<path d="M0 0 C0.33 0.66 0.66 1.32 1 2 C-2.09402618 5.88963291 -5.05864207 8.93449939 -9 12 C-9.33 12.66 -9.66 13.32 -10 14 C-11.32 13.67 -12.64 13.34 -14 13 C-13.07316406 12.14535156 -12.14632813 11.29070312 -11.19140625 10.41015625 C-9.98176077 9.29428174 -8.7721259 8.17839573 -7.5625 7.0625 C-6.64500977 6.21655273 -6.64500977 6.21655273 -5.70898438 5.35351562 C-5.12568359 4.81533203 -4.54238281 4.27714844 -3.94140625 3.72265625 C-3.40201416 3.22515869 -2.86262207 2.72766113 -2.30688477 2.21508789 C-1.52614632 1.48918929 -0.75381738 0.75381738 0 0 Z " fill="#EFC8CC" transform="translate(459,408)"/>
<path d="M0 0 C0.66 0 1.32 0 2 0 C1.34 2.31 0.68 4.62 0 7 C-0.66 7 -1.32 7 -2 7 C-2.66 10.3 -3.32 13.6 -4 17 C-4.33 17 -4.66 17 -5 17 C-5.7342166 10.24520726 -3.27591952 5.81475715 0 0 Z " fill="#F3D6D9" transform="translate(304,183)"/>
<path d="M0 0 C3.79049707 1.42749981 7.27122456 3.16236542 10.8125 5.125 C12.27623047 5.93324219 12.27623047 5.93324219 13.76953125 6.7578125 C14.50558594 7.16773438 15.24164063 7.57765625 16 8 C15.67 8.66 15.34 9.32 15 10 C13.02 9.34 11.04 8.68 9 8 C9 7.34 9 6.68 9 6 C8.2575 5.71125 7.515 5.4225 6.75 5.125 C4.43260203 4.17697356 2.22082885 3.15154089 0 2 C0 1.34 0 0.68 0 0 Z " fill="#FCEBE9" transform="translate(235,491)"/>
<path d="M0 0 C1.77049689 -0.05410687 3.54146849 -0.09284119 5.3125 -0.125 C6.29863281 -0.14820312 7.28476563 -0.17140625 8.30078125 -0.1953125 C11 0 11 0 14 2 C14 2.66 14 3.32 14 4 C9.02906176 3.58846263 4.55491614 3.20399168 0 1 C0 0.67 0 0.34 0 0 Z " fill="#F9D9D5" transform="translate(191,118)"/>
<path d="M0 0 C0.33 0.99 0.66 1.98 1 3 C-1.71757113 6.64930981 -4.72136362 9.8427946 -8 13 C-8.99 12.67 -9.98 12.34 -11 12 C-10.45730469 11.46890625 -9.91460937 10.9378125 -9.35546875 10.390625 C-8.64003906 9.68421875 -7.92460937 8.9778125 -7.1875 8.25 C-6.47980469 7.55390625 -5.77210938 6.8578125 -5.04296875 6.140625 C-3.17724121 4.18571355 -1.56830358 2.19661447 0 0 Z " fill="#EEC5C9" transform="translate(491,375)"/>
<path d="M0 0 C-1.93370231 1.00732399 -3.87210306 2.00563288 -5.8125 3 C-7.43091797 3.8353125 -7.43091797 3.8353125 -9.08203125 4.6875 C-12 6 -12 6 -15 6 C-15 5.34 -15 4.68 -15 4 C-13.25705322 3.13153169 -11.50531337 2.28069373 -9.75 1.4375 C-8.77546875 0.96183594 -7.8009375 0.48617187 -6.796875 -0.00390625 C-3.90143703 -1.03510273 -2.80033839 -1.11346788 0 0 Z " fill="#FBF1F2" transform="translate(372,125)"/>
<path d="M0 0 C0.99 0.33 1.98 0.66 3 1 C1.61133677 1.9893091 0.21370149 2.96603078 -1.1875 3.9375 C-1.96480469 4.48277344 -2.74210937 5.02804688 -3.54296875 5.58984375 C-6.07950299 7.0456289 -8.1218182 7.59613435 -11 8 C-10.34 7.67 -9.68 7.34 -9 7 C-9 6.34 -9 5.68 -9 5 C-8.071875 4.54625 -7.14375 4.0925 -6.1875 3.625 C-2.96078611 2.0578367 -2.96078611 2.0578367 0 0 Z " fill="#FAF0F1" transform="translate(354,131)"/>
<path d="M0 0 C1.8871875 0.0309375 1.8871875 0.0309375 3.8125 0.0625 C0.95839666 1.56810497 -1.86874642 2.69466796 -4.9375 3.6875 C-5.73671875 3.94789062 -6.5359375 4.20828125 -7.359375 4.4765625 C-7.96265625 4.66992188 -8.5659375 4.86328125 -9.1875 5.0625 C-8.375 3.125 -8.375 3.125 -7.1875 1.0625 C-4.43671116 0.14557039 -2.82801087 -0.04636083 0 0 Z " fill="#ECBDC2" transform="translate(380.1875,120.9375)"/>
<path d="M0 0 C5.52628901 1.19194469 8.17819158 2.5991297 12 7 C7.25 6.125 7.25 6.125 5 5 C5 4.34 5 3.68 5 3 C3.35 2.67 1.7 2.34 0 2 C0 1.34 0 0.68 0 0 Z " fill="#FBE6E4" transform="translate(252,501)"/>
<path d="M0 0 C1.4606285 2.64738916 2 3.89448334 2 7 C2.66 7 3.32 7 4 7 C4.33 8.65 4.66 10.3 5 12 C3.0625 11.1875 3.0625 11.1875 1 10 C-0.1577506 6.52674819 -0.06866652 3.63932552 0 0 Z " fill="#F9D5D1" transform="translate(49,304)"/>
<path d="M0 0 C0.66 0.33 1.32 0.66 2 1 C2 1.66 2 2.32 2 3 C0.35 3.33 -1.3 3.66 -3 4 C-3 4.66 -3 5.32 -3 6 C-4.32 5.34 -5.64 4.68 -7 4 C-1.7265625 0.77734375 -1.7265625 0.77734375 0 0 Z " fill="#EBBCC1" transform="translate(331,500)"/>
<path d="M0 0 C2.93200474 2.85276137 5.64315404 5.65079784 8 9 C4.21304827 8.4590069 2.37254028 6.96567536 0 4 C0 2.68 0 1.36 0 0 Z " fill="#FADFDC" transform="translate(94,376)"/>
<path d="M0 0 C0.66 0 1.32 0 2 0 C2 0.66 2 1.32 2 2 C1.34 2 0.68 2 0 2 C-0.66 3.65 -1.32 5.3 -2 7 C-2.66 7 -3.32 7 -4 7 C-4.33 7.66 -4.66 8.32 -5 9 C-4.42676569 5.13066838 -2.61046448 2.84777943 0 0 Z " fill="#F7E5E7" transform="translate(506,357)"/>
<path d="M0 0 C0.99 0.33 1.98 0.66 3 1 C3.66 0.67 4.32 0.34 5 0 C4.67 2.31 4.34 4.62 4 7 C3.01 7 2.02 7 1 7 C0.67 4.69 0.34 2.38 0 0 Z " fill="#F5D4D4" transform="translate(290,212)"/>
<path d="M0 0 C3.82097239 0.53069061 6.06171403 1.49701566 9 4 C8.67 4.66 8.34 5.32 8 6 C5.36 4.68 2.72 3.36 0 2 C0 1.34 0 0.68 0 0 Z " fill="#FCEAE9" transform="translate(264,508)"/>
<path d="M0 0 C0 0.66 0 1.32 0 2 C-1.98 2.66 -3.96 3.32 -6 4 C-6 4.66 -6 5.32 -6 6 C-6.66 6 -7.32 6 -8 6 C-6.24081631 1.94034532 -4.71412298 0 0 0 Z " fill="#F9ECED" transform="translate(415,448)"/>
<path d="M0 0 C3.78611227 0.54087318 5.55400767 2.11722332 8 5 C8 5.66 8 6.32 8 7 C7.01 6.67 6.02 6.34 5 6 C5 5.34 5 4.68 5 4 C4.01 3.67 3.02 3.34 2 3 C2 2.34 2 1.68 2 1 C1.34 0.67 0.68 0.34 0 0 Z " fill="#FDF4F4" transform="translate(131,416)"/>
<path d="M0 0 C0.33 0.99 0.66 1.98 1 3 C-0.8125 6.1875 -0.8125 6.1875 -3 9 C-3.66 9 -4.32 9 -5 9 C-5 8.34 -5 7.68 -5 7 C-4.34 7 -3.68 7 -3 7 C-2.87625 6.401875 -2.7525 5.80375 -2.625 5.1875 C-2 3 -2 3 0 0 Z " fill="#FCF7F7" transform="translate(309,174)"/>
<path d="M0 0 C0.66 0.33 1.32 0.66 2 1 C0.35 2.65 -1.3 4.3 -3 6 C-3.99 5.67 -4.98 5.34 -6 5 C-4.02 3.35 -2.04 1.7 0 0 Z " fill="#F4D9DB" transform="translate(419,442)"/>
<path d="M0 0 C0.66 0.99 1.32 1.98 2 3 C1.5390625 5.04296875 1.5390625 5.04296875 0.625 7.1875 C0.32851563 7.90292969 0.03203125 8.61835938 -0.2734375 9.35546875 C-0.51320312 9.89816406 -0.75296875 10.44085938 -1 11 C-2.31538327 6.84228506 -1.34433068 4.1120703 0 0 Z " fill="#E96455" transform="translate(41,213)"/>
<path d="M0 0 C4.75 0.875 4.75 0.875 7 2 C6.67 3.32 6.34 4.64 6 6 C3.97945196 4.35830472 1.97956942 2.69088222 0 1 C0 0.67 0 0.34 0 0 Z " fill="#FADEDB" transform="translate(242,141)"/>
<path d="M0 0 C2.875 0.1875 2.875 0.1875 6 1 C7.375 3.5625 7.375 3.5625 8 6 C6.68 5.34 5.36 4.68 4 4 C4 3.34 4 2.68 4 2 C2.68 1.34 1.36 0.68 0 0 Z " fill="#F3D5D8" transform="translate(487,135)"/>
<path d="M0 0 C0.66 0.33 1.32 0.66 2 1 C2 1.66 2 2.32 2 3 C-2.455 3.495 -2.455 3.495 -7 4 C-4.61426621 2.10786631 -2.92824652 0.97608217 0 0 Z " fill="#FDFAFB" transform="translate(386,117)"/>
</svg>
